<?xml version="1.0" encoding="utf-8"?>
<!-- Generator: Adobe Illustrator 19.1.0, SVG Export Plug-In . SVG Version: 6.00 Build 0)  -->
<svg version="1.1" id="Layer_1" xmlns="http://www.w3.org/2000/svg" xmlns:xlink="http://www.w3.org/1999/xlink" x="0px" y="0px"
	 viewBox="0 0 300 150" style="enable-background:new 0 0 300 150;" xml:space="preserve">
<style type="text/css">
	.st0{fill:none;stroke:#000000;stroke-linecap:round;stroke-linejoin:round;stroke-miterlimit:10;}
	.st1{fill:none;stroke:#000000;stroke-width:2;stroke-linecap:round;stroke-linejoin:round;stroke-miterlimit:10;}
	.st2{fill:none;stroke:#000000;stroke-width:2;stroke-miterlimit:10;}
	.st3{fill:none;stroke:#000000;stroke-linecap:round;stroke-miterlimit:10;}
	.st4{fill:none;stroke:#000000;stroke-width:1.5;stroke-miterlimit:10;}
	.st5{fill:none;stroke:#000000;stroke-width:2;stroke-linecap:round;stroke-miterlimit:10;}
	.st6{fill:none;}
	.st7{stroke:#000000;stroke-linecap:round;stroke-linejoin:round;stroke-miterlimit:10;}
	.st8{fill:none;stroke:#000000;stroke-miterlimit:10;}
	.st9{fill:#FFFFFF;stroke:#000000;stroke-miterlimit:10;}
	.st10{fill:#11ACCD;}
	.st11{fill:none;stroke:#11ACCD;stroke-width:3;stroke-linecap:round;stroke-miterlimit:10;}
	.st12{fill:#FF9C39;}
	.st13{fill:none;stroke:#FF9C39;stroke-width:2;stroke-linecap:round;stroke-miterlimit:10;}
	.st14{fill:none;stroke:#E84D39;stroke-width:2;stroke-linecap:round;stroke-miterlimit:10;}
	.st15{fill:#E84D39;}
	.st16{fill:#BABEC2;}
	.st17{fill:none;stroke:#BABEC2;stroke-linecap:round;stroke-linejoin:round;stroke-miterlimit:10;}
</style>
<g>
	<g>
		<path class="st13" d="M233.8,48c2.4-4.5,2.5-11.7,0-19c-1.4-4.2-3.6-7.8-6-10.6"/>
		<g>
			<path class="st12" d="M222.1,14c3.4,1.2,8.1,2.2,11.6,2l-5.2,3.1l-2,5.7C225.9,21.4,224,17.1,222.1,14z"/>
		</g>
	</g>
</g>
<g>
	<g>
		<path class="st13" d="M85.5,45c0.2-3.6-0.3-7.8-1.8-12c-2.5-7.3-7.1-12.9-11.7-15"/>
		<g>
			<path class="st12" d="M83.7,52.1c2-3,5.1-6.7,7.9-8.7l-6,0.7l-5.1-3.3C82.1,43.8,83.2,48.4,83.7,52.1z"/>
		</g>
	</g>
</g>
<g>
	<circle class="st2" cx="180" cy="84" r="18"/>
	<polyline class="st3" points="180,66 180,36 210,36 	"/>
	<polyline class="st0" points="276,132 180,132 180,102 	"/>
	<line class="st4" x1="180" y1="70.5" x2="180" y2="82.5"/>
	<line class="st4" x1="174" y1="76.5" x2="186" y2="76.5"/>
	<line class="st4" x1="174" y1="94.5" x2="186" y2="94.5"/>
</g>
<g>
	<line class="st0" x1="276" y1="60.6" x2="276" y2="36"/>
	<polyline class="st1" points="276,107.4 267,103.5 285,95.7 267,87.9 285,80.1 267,72.3 285,64.5 276,60.6 	"/>
	<line class="st0" x1="276" y1="132" x2="276" y2="107.4"/>
	<rect x="264" y="36" class="st6" width="24" height="96"/>
</g>
<g>
	<g>
		<circle class="st16" cx="96" cy="36" r="3"/>
		<rect x="90" y="30" class="st6" width="12" height="12"/>
	</g>
	<g>
		<circle class="st16" cx="60" cy="36" r="3"/>
		<rect x="54" y="30" class="st6" width="12" height="12"/>
	</g>
	<line class="st17" x1="60" y1="36" x2="96" y2="24.4"/>
</g>
<g>
	<g>
		<circle cx="96" cy="36" r="3"/>
		<rect x="90" y="30" class="st6" width="12" height="12"/>
	</g>
	<g>
		<circle cx="60" cy="36" r="3"/>
		<rect x="54" y="30" class="st6" width="12" height="12"/>
	</g>
	<line class="st0" x1="60" y1="36" x2="97.7" y2="32.6"/>
</g>
<g>
	<g>
		<circle cx="246" cy="36" r="3"/>
		<rect x="240" y="30" class="st6" width="12" height="12"/>
	</g>
	<g>
		<circle cx="210" cy="36" r="3"/>
		<rect x="204" y="30" class="st6" width="12" height="12"/>
	</g>
	<line class="st0" x1="210" y1="36" x2="246" y2="24.4"/>
</g>
<g>
	<line class="st17" x1="210" y1="36" x2="247.7" y2="32.6"/>
	<g>
		<circle cx="246" cy="36" r="3"/>
		<rect x="240" y="30" class="st6" width="12" height="12"/>
	</g>
	<g>
		<circle cx="210" cy="36" r="3"/>
		<rect x="204" y="30" class="st6" width="12" height="12"/>
	</g>
</g>
<line class="st3" x1="246" y1="36" x2="276" y2="36"/>
<g>
	<circle class="st2" cx="30" cy="84" r="18"/>
	<polyline class="st3" points="30,66 30,36 60,36 	"/>
	<polyline class="st0" points="126,132 30,132 30,102 	"/>
	<line class="st4" x1="30" y1="70.5" x2="30" y2="82.5"/>
	<line class="st4" x1="24" y1="76.5" x2="36" y2="76.5"/>
	<line class="st4" x1="24" y1="94.5" x2="36" y2="94.5"/>
</g>
<g>
	<line class="st0" x1="126" y1="60.6" x2="126" y2="36"/>
	<polyline class="st1" points="126,107.4 117,103.5 135,95.7 117,87.9 135,80.1 117,72.3 135,64.5 126,60.6 	"/>
	<line class="st0" x1="126" y1="132" x2="126" y2="107.4"/>
	<rect x="114" y="36" class="st6" width="24" height="96"/>
</g>
<line class="st3" x1="96" y1="36" x2="126" y2="36"/>
<g>
	<path class="st12" d="M66.1,18.3h-6.7c0.1-1.6,1.2-3.4,3.3-3.4C65,14.9,66,16.8,66.1,18.3z M62.9,24.3c1.7,0,3-0.5,4-1.6l-0.8-1
		c-0.8,0.8-2,1.3-3.1,1.3c-2.2,0-3.5-1.6-3.7-3.5h8.2V19c0-3-1.8-5.4-4.9-5.4c-2.9,0-5,2.4-5,5.3C57.8,22.1,59.9,24.3,62.9,24.3z
		 M56.5,24L52,18.5l4.5-4.6h-2l-5.3,5.4V10h-1.6v14h1.6v-2.9l1.7-1.7l3.7,4.6H56.5z M40.1,23.1c-1.5,0-2.5-0.9-2.5-2.2
		c0-1.3,1-2.2,2.5-2.2c1.1,0,2.2,0.4,2.8,1.3v1.9C42.3,22.7,41.2,23.1,40.1,23.1z M44.5,24v-7c0-2.5-1.8-3.4-3.9-3.4
		c-1.7,0-3,0.5-4.1,1.7l0.7,1.1c0.9-1,1.9-1.4,3.1-1.4c1.5,0,2.6,0.8,2.6,2.1v1.8c-0.8-0.9-2-1.4-3.4-1.4c-1.7,0-3.5,1.1-3.5,3.3
		c0,2.2,1.8,3.4,3.5,3.4c1.4,0,2.5-0.5,3.4-1.4V24H44.5z M33.4,24v-7.3c0-2-1-3.1-2.8-3.1c-1.5,0-2.8,1-3.4,1.9
		c-0.3-1-1.2-1.9-2.7-1.9c-1.5,0-2.9,1.1-3.3,1.7v-1.5h-1.6V24h1.6v-7.4c0.5-0.8,1.6-1.6,2.7-1.6c1.3,0,1.9,0.8,1.9,2.1V24h1.6v-7.4
		c0.5-0.8,1.6-1.6,2.7-1.6c1.3,0,1.9,0.8,1.9,2.1V24H33.4z"/>
	<path class="st12" d="M220.4,24l-4.5-5.5l4.5-4.6h-2l-5.3,5.4V10h-1.6v14h1.6v-2.9l1.7-1.7l3.7,4.6H220.4z M204,23.1
		c-1.5,0-2.5-0.9-2.5-2.2c0-1.3,1-2.2,2.5-2.2c1.1,0,2.2,0.4,2.8,1.3v1.9C206.1,22.7,205.1,23.1,204,23.1z M208.3,24v-7
		c0-2.5-1.8-3.4-3.9-3.4c-1.7,0-3,0.5-4.1,1.7l0.7,1.1c0.9-1,1.9-1.4,3.1-1.4c1.5,0,2.6,0.8,2.6,2.1v1.8c-0.8-0.9-2-1.4-3.4-1.4
		c-1.7,0-3.5,1.1-3.5,3.3c0,2.2,1.8,3.4,3.5,3.4c1.4,0,2.5-0.5,3.4-1.4V24H208.3z M196.3,18.3h-6.7c0.1-1.6,1.2-3.4,3.3-3.4
		C195.3,14.9,196.3,16.8,196.3,18.3z M193.2,24.3c1.7,0,3-0.5,4-1.6l-0.8-1c-0.8,0.8-2,1.3-3.1,1.3c-2.2,0-3.5-1.6-3.7-3.5h8.2V19
		c0-3-1.8-5.4-4.9-5.4c-2.9,0-5,2.4-5,5.3C188,22.1,190.2,24.3,193.2,24.3z M183.2,24v-7.2c0.5-0.8,1.8-1.6,2.8-1.6
		c0.3,0,0.4,0,0.6,0.1v-1.6c-1.4,0-2.6,0.8-3.4,1.8v-1.6h-1.6V24H183.2z M171.1,24v-1.5c0.8,1,2,1.8,3.4,1.8c2.6,0,4.5-2,4.5-5.3
		c0-3.2-1.9-5.3-4.5-5.3c-1.4,0-2.6,0.7-3.4,1.8V10h-1.6v14H171.1z M171.1,21.2v-4.6c0.5-0.9,1.8-1.6,3-1.6c2.1,0,3.3,1.7,3.3,3.9
		c0,2.2-1.2,3.9-3.3,3.9C172.9,22.8,171.7,22.1,171.1,21.2z"/>
</g>
</svg>
