<?xml version="1.0" encoding="utf-8"?>
<!-- Generator: Adobe Illustrator 19.1.0, SVG Export Plug-In . SVG Version: 6.00 Build 0)  -->
<svg version="1.1" id="Layer_1" xmlns="http://www.w3.org/2000/svg" xmlns:xlink="http://www.w3.org/1999/xlink" x="0px" y="0px"
	 width="384px" height="162px" viewBox="0 0 384 162" style="enable-background:new 0 0 384 162;" xml:space="preserve">
<style type="text/css">
	.st0{fill:none;}
	.st1{fill:#E07D10;}
	.st2{fill:none;stroke:#ED5FA6;stroke-width:7;stroke-linecap:round;stroke-linejoin:round;stroke-miterlimit:10;}
	.st3{fill:none;stroke:#AA87FF;stroke-width:7;stroke-linecap:round;stroke-linejoin:round;stroke-miterlimit:10;}
	.st4{fill:none;stroke:#FF9C39;stroke-width:7;stroke-linecap:round;stroke-linejoin:round;stroke-miterlimit:10;}
	.st5{fill:#8AF281;stroke:#8AF281;stroke-linecap:round;stroke-linejoin:round;stroke-miterlimit:10;}
	.st6{fill:#FF9C39;stroke:#E07D10;stroke-linecap:round;stroke-linejoin:round;stroke-miterlimit:10;}
	.st7{fill:none;stroke:#8AF281;stroke-width:7;stroke-linecap:round;stroke-linejoin:round;stroke-miterlimit:10;}
	.st8{fill:#ED5FA6;stroke:#ED5FA6;stroke-width:7;stroke-linecap:round;stroke-linejoin:round;stroke-miterlimit:10;}
	.st9{fill:none;stroke:#1FAB54;stroke-width:7;stroke-linecap:round;stroke-linejoin:round;stroke-miterlimit:10;}
	.st10{fill:none;stroke:#1FAB54;stroke-width:6;stroke-linecap:round;stroke-linejoin:round;stroke-miterlimit:10;}
	.st11{fill:#FF9C39;stroke:#FF9C39;stroke-width:5;stroke-linecap:round;stroke-miterlimit:10;}
	.st12{fill:none;stroke:#1FAB54;stroke-width:4;stroke-miterlimit:10;}
	.st13{fill:none;stroke:#3C91E5;stroke-width:4;stroke-miterlimit:10;}
	.st14{fill:#FFFFFF;}
	.st15{fill:none;stroke:#11ACCD;stroke-width:5;stroke-linecap:round;stroke-miterlimit:10;}
	.st16{fill:#11ACCD;}
	.st17{fill:none;stroke:#FF9C39;stroke-width:4;stroke-miterlimit:10;}
	.st18{fill:none;stroke:#63D9EA;stroke-width:7;stroke-linecap:round;stroke-miterlimit:10;}
	.st19{fill:none;stroke:#63D9EA;stroke-width:8;stroke-linecap:round;stroke-miterlimit:10;}
	.st20{fill:none;stroke:#000000;stroke-linecap:round;stroke-linejoin:round;stroke-miterlimit:10;}
	.st21{fill:none;stroke:#000000;stroke-width:1.5;stroke-linecap:round;stroke-linejoin:round;stroke-miterlimit:10;}
	.st22{fill:none;stroke:#000000;stroke-linecap:round;stroke-miterlimit:10;}
	.st23{fill:none;stroke:#000000;stroke-width:1.5;stroke-linecap:round;stroke-miterlimit:10;}
	.st24{fill:none;stroke:#000000;stroke-width:2;stroke-linecap:round;stroke-linejoin:round;stroke-miterlimit:10;}
	.st25{fill:none;stroke:#000000;stroke-width:1.5;stroke-miterlimit:10;}
	.st26{fill:none;stroke:#000000;stroke-miterlimit:10;}
	.st27{fill:none;stroke:#000000;stroke-width:2;stroke-miterlimit:10;}
	.st28{fill:none;stroke:#000000;stroke-width:2;stroke-linecap:round;stroke-miterlimit:10;}
	.st29{fill:none;stroke:#000000;stroke-linecap:round;stroke-linejoin:round;}
	.st30{stroke:#000000;stroke-linecap:round;stroke-linejoin:round;stroke-miterlimit:10;}
	.st31{fill:none;stroke:#000000;stroke-width:1.5;stroke-linejoin:round;stroke-miterlimit:10;}
	.st32{fill:none;stroke:#000000;stroke-linejoin:round;stroke-miterlimit:10;}
	.st33{clip-path:url(#SVGID_2_);fill:none;stroke:#000000;stroke-linejoin:round;stroke-miterlimit:10;}
	.st34{clip-path:url(#SVGID_2_);fill:none;stroke:#ADADEB;stroke-linejoin:round;stroke-miterlimit:10;}
	.st35{clip-path:url(#SVGID_2_);}
	.st36{stroke:#000000;stroke-linejoin:round;stroke-miterlimit:10;}
	.st37{stroke:#000000;stroke-width:3;stroke-linejoin:round;stroke-miterlimit:10;}
	.st38{fill:none;stroke:#000000;stroke-width:2;stroke-linejoin:round;stroke-miterlimit:10;}
	.st39{fill:none;stroke:#E84D39;stroke-width:3;stroke-linecap:round;stroke-linejoin:round;}
	.st40{fill:#E84D39;}
	.st41{fill:none;stroke:#11ACCD;stroke-width:2;stroke-linecap:round;stroke-linejoin:round;}
	.st42{fill:none;stroke:#F9685D;stroke-width:2;stroke-linecap:round;stroke-linejoin:round;}
	.st43{fill:#F9685D;}
	.st44{fill:#11ACCD;stroke:#000000;stroke-linecap:round;stroke-miterlimit:10;}
	.st45{stroke:#000000;stroke-linecap:round;stroke-miterlimit:10;}
	.st46{fill:#FFFF00;stroke:#000000;stroke-linecap:round;stroke-miterlimit:10;}
	.st47{fill:#F9685D;stroke:#000000;stroke-linecap:round;stroke-miterlimit:10;}
	.st48{fill:#D6D8DA;stroke:#000000;stroke-linecap:round;stroke-miterlimit:10;}
	.st49{fill:none;stroke:#FF9C39;stroke-width:5;stroke-linecap:round;stroke-linejoin:round;stroke-miterlimit:10;}
	.st50{fill:#FF9C39;}
	.st51{fill:#AA87FF;}
	.st52{fill:#ED5FA6;}
	.st53{fill:#1FAB54;}
	.st54{fill:none;stroke:#000000;stroke-width:4;stroke-linecap:round;stroke-linejoin:round;stroke-miterlimit:10;}
	.st55{stroke:#000000;stroke-miterlimit:10;}
	.st56{font-family:'KaTeX_Main-Regular';}
	.st57{font-size:21px;}
	.st58{stroke:#000000;stroke-width:2;stroke-linecap:round;stroke-linejoin:round;stroke-miterlimit:10;}
	.st59{fill:none;stroke:#000000;stroke-width:3;stroke-linecap:round;stroke-linejoin:round;stroke-miterlimit:10;}
	.st60{fill:none;stroke:#000000;stroke-linejoin:round;}
	.st61{fill:none;stroke:#000000;stroke-width:7;stroke-linecap:round;stroke-linejoin:round;stroke-miterlimit:10;}
	.st62{fill:none;stroke:#11ACCD;stroke-width:3;stroke-linecap:round;stroke-linejoin:round;}
	.st63{fill:none;stroke:#11ACCD;stroke-width:2;stroke-linecap:round;stroke-miterlimit:10;}
	.st64{fill:none;stroke:#E07D10;stroke-width:2;stroke-linecap:round;stroke-miterlimit:10;}
	.st65{fill:none;stroke:#11ACCD;stroke-width:2;stroke-miterlimit:10;}
	.st66{fill:none;stroke:#000000;stroke-width:3;stroke-linecap:square;stroke-miterlimit:10;}
	.st67{fill:#BE2612;}
	.st68{fill:none;stroke:#BE2612;stroke-width:2;stroke-linecap:round;stroke-linejoin:round;}
	.st69{fill:none;stroke:#21242C;stroke-linecap:round;stroke-linejoin:round;stroke-miterlimit:10;}
	.st70{fill:none;stroke:#11ACCD;stroke-width:3;stroke-linecap:round;stroke-miterlimit:10;}
	.st71{fill:#FFFFFF;stroke:#000000;stroke-miterlimit:10;}
</style>
<line class="st8" x1="162" y1="60" x2="162" y2="48"/>
<polyline class="st9" points="234,48.7 329.7,48 329.7,60 "/>
<line class="st8" x1="150" y1="48" x2="174" y2="48"/>
<line class="st10" x1="246" y1="60" x2="246" y2="48"/>
<polyline class="st4" points="60,114 60.5,132.3 330,131.8 330,122.9 "/>
<polyline class="st3" points="60,66 60,48 90,48 "/>
<line class="st4" x1="162" y1="120" x2="162" y2="132"/>
<line class="st4" x1="246" y1="120" x2="246" y2="132"/>
<text transform="matrix(1 0 0 1 198 156)" class="st50 st56 st57">1</text>
<text transform="matrix(1 0 0 1 48 36)" class="st51 st56 st57">2</text>
<text transform="matrix(1 0 0 1 156 36)" class="st52 st56 st57">3</text>
<text transform="matrix(1 0 0 1 276 36)" class="st53 st56 st57">4</text>
<g>
	<circle cx="162" cy="48" r="3"/>
	<rect x="156" y="42" class="st0" width="12" height="12"/>
</g>
<g>
	<circle cx="246" cy="48" r="3"/>
	<rect x="240" y="42" class="st0" width="12" height="12"/>
</g>
<g>
	<circle cx="246" cy="132" r="3"/>
	<rect x="240" y="126" class="st0" width="12" height="12"/>
</g>
<g>
	<circle cx="162" cy="132" r="3"/>
	<rect x="156" y="126" class="st0" width="12" height="12"/>
</g>
<g>
	<circle class="st27" cx="60" cy="90" r="18"/>
	<polyline class="st28" points="78,48 60,48 60,72 	"/>
	<polyline class="st24" points="60,108 60,132 330,132 	"/>
	<line class="st27" x1="60" y1="76.5" x2="60" y2="88.5"/>
	<line class="st27" x1="54" y1="82.5" x2="66" y2="82.5"/>
	<line class="st27" x1="54" y1="100.5" x2="66" y2="100.5"/>
</g>
<g>
	<line class="st24" x1="143.4" y1="48" x2="162" y2="48"/>
	<polyline class="st24" points="96.6,48 100.5,39 108.3,57 116.1,39 123.9,57 131.7,39 139.5,57 143.4,48 	"/>
	<line class="st24" x1="78" y1="48" x2="96.6" y2="48"/>
	<rect x="78" y="36" class="st0" width="84" height="24"/>
</g>
<g>
	<line class="st24" x1="227.4" y1="48" x2="246" y2="48"/>
	<polyline class="st24" points="180.6,48 184.5,39 192.3,57 200.1,39 207.9,57 215.7,39 223.5,57 227.4,48 	"/>
	<line class="st24" x1="162" y1="48" x2="180.6" y2="48"/>
	<rect x="162" y="36" class="st0" width="84" height="24"/>
</g>
<g>
	<line class="st24" x1="162" y1="66.6" x2="162" y2="48"/>
	<polyline class="st24" points="162,113.4 153,109.5 171,101.7 153,93.9 171,86.1 153,78.3 171,70.5 162,66.6 	"/>
	<line class="st24" x1="162" y1="132" x2="162" y2="113.4"/>
	<rect x="150" y="48" class="st0" width="24" height="84"/>
</g>
<g>
	<line class="st24" x1="246" y1="66.6" x2="246" y2="48"/>
	<polyline class="st24" points="246,113.4 237,109.5 255,101.7 237,93.9 255,86.1 237,78.3 255,70.5 246,66.6 	"/>
	<line class="st24" x1="246" y1="132" x2="246" y2="113.4"/>
	<rect x="234" y="48" class="st0" width="24" height="84"/>
</g>
<g>
	<line class="st24" x1="330" y1="66.6" x2="330" y2="48"/>
	<polyline class="st24" points="330,113.4 321,109.5 339,101.7 321,93.9 339,86.1 321,78.3 339,70.5 330,66.6 	"/>
	<line class="st24" x1="330" y1="132" x2="330" y2="113.4"/>
	<rect x="318" y="48" class="st0" width="24" height="84"/>
</g>
<line class="st24" x1="330" y1="48" x2="240" y2="48"/>
<text transform="matrix(1 0 0 1 12 96)" class="st56 st57">V0</text>
<text transform="matrix(1 0 0 1 108 30)" class="st56 st57">R1</text>
<text transform="matrix(1 0 0 1 192 30)" class="st56 st57">R2</text>
<text transform="matrix(1 0 0 1 180 96)" class="st56 st57">R3</text>
<text transform="matrix(1 0 0 1 264 96)" class="st56 st57">R4</text>
<text transform="matrix(1 0 0 1 348 96)" class="st56 st57">R5</text>
</svg>
