<?xml version="1.0" encoding="utf-8"?>
<!-- Generator: Adobe Illustrator 19.1.0, SVG Export Plug-In . SVG Version: 6.00 Build 0)  -->
<svg version="1.1" id="Layer_1" xmlns="http://www.w3.org/2000/svg" xmlns:xlink="http://www.w3.org/1999/xlink" x="0px" y="0px"
	 width="426px" height="108px" viewBox="0 0 426 108" style="enable-background:new 0 0 426 108;" xml:space="preserve">
<style type="text/css">
	.st0{fill:none;}
	.st1{fill:#E07D10;}
	.st2{fill:none;stroke:#ED5FA6;stroke-width:7;stroke-linecap:round;stroke-linejoin:round;stroke-miterlimit:10;}
	.st3{fill:none;stroke:#AA87FF;stroke-width:7;stroke-linecap:round;stroke-linejoin:round;stroke-miterlimit:10;}
	.st4{fill:none;stroke:#FF9C39;stroke-width:7;stroke-linecap:round;stroke-linejoin:round;stroke-miterlimit:10;}
	.st5{fill:#8AF281;stroke:#8AF281;stroke-linecap:round;stroke-linejoin:round;stroke-miterlimit:10;}
	.st6{fill:#FF9C39;stroke:#E07D10;stroke-linecap:round;stroke-linejoin:round;stroke-miterlimit:10;}
	.st7{fill:none;stroke:#8AF281;stroke-width:7;stroke-linecap:round;stroke-linejoin:round;stroke-miterlimit:10;}
	.st8{fill:#ED5FA6;stroke:#ED5FA6;stroke-width:7;stroke-linecap:round;stroke-linejoin:round;stroke-miterlimit:10;}
	.st9{fill:none;stroke:#1FAB54;stroke-width:7;stroke-linecap:round;stroke-linejoin:round;stroke-miterlimit:10;}
	.st10{fill:none;stroke:#1FAB54;stroke-width:6;stroke-linecap:round;stroke-linejoin:round;stroke-miterlimit:10;}
	.st11{fill:#FF9C39;stroke:#FF9C39;stroke-width:5;stroke-linecap:round;stroke-miterlimit:10;}
	.st12{fill:none;stroke:#1FAB54;stroke-width:4;stroke-miterlimit:10;}
	.st13{fill:none;stroke:#3C91E5;stroke-width:4;stroke-miterlimit:10;}
	.st14{fill:#FFFFFF;}
	.st15{fill:none;stroke:#11ACCD;stroke-width:5;stroke-linecap:round;stroke-miterlimit:10;}
	.st16{fill:#11ACCD;}
	.st17{fill:none;stroke:#FF9C39;stroke-width:4;stroke-miterlimit:10;}
	.st18{fill:none;stroke:#63D9EA;stroke-width:7;stroke-linecap:round;stroke-miterlimit:10;}
	.st19{fill:none;stroke:#63D9EA;stroke-width:8;stroke-linecap:round;stroke-miterlimit:10;}
	.st20{fill:none;stroke:#000000;stroke-linecap:round;stroke-linejoin:round;stroke-miterlimit:10;}
	.st21{fill:none;stroke:#000000;stroke-width:1.5;stroke-linecap:round;stroke-linejoin:round;stroke-miterlimit:10;}
	.st22{fill:none;stroke:#000000;stroke-linecap:round;stroke-miterlimit:10;}
	.st23{fill:none;stroke:#000000;stroke-width:1.5;stroke-linecap:round;stroke-miterlimit:10;}
	.st24{fill:none;stroke:#000000;stroke-width:2;stroke-linecap:round;stroke-linejoin:round;stroke-miterlimit:10;}
	.st25{fill:none;stroke:#000000;stroke-width:1.5;stroke-miterlimit:10;}
	.st26{fill:none;stroke:#000000;stroke-miterlimit:10;}
	.st27{fill:none;stroke:#000000;stroke-width:2;stroke-miterlimit:10;}
	.st28{fill:none;stroke:#000000;stroke-width:2;stroke-linecap:round;stroke-miterlimit:10;}
	.st29{fill:none;stroke:#000000;stroke-linecap:round;stroke-linejoin:round;}
	.st30{stroke:#000000;stroke-linecap:round;stroke-linejoin:round;stroke-miterlimit:10;}
	.st31{fill:none;stroke:#000000;stroke-width:1.5;stroke-linejoin:round;stroke-miterlimit:10;}
	.st32{fill:none;stroke:#000000;stroke-linejoin:round;stroke-miterlimit:10;}
	.st33{clip-path:url(#SVGID_2_);fill:none;stroke:#000000;stroke-linejoin:round;stroke-miterlimit:10;}
	.st34{clip-path:url(#SVGID_2_);fill:none;stroke:#ADADEB;stroke-linejoin:round;stroke-miterlimit:10;}
	.st35{clip-path:url(#SVGID_2_);}
	.st36{stroke:#000000;stroke-linejoin:round;stroke-miterlimit:10;}
	.st37{stroke:#000000;stroke-width:3;stroke-linejoin:round;stroke-miterlimit:10;}
	.st38{fill:none;stroke:#000000;stroke-width:2;stroke-linejoin:round;stroke-miterlimit:10;}
	.st39{fill:none;stroke:#E84D39;stroke-width:3;stroke-linecap:round;stroke-linejoin:round;}
	.st40{fill:#E84D39;}
	.st41{fill:none;stroke:#11ACCD;stroke-width:2;stroke-linecap:round;stroke-linejoin:round;}
	.st42{fill:none;stroke:#F9685D;stroke-width:2;stroke-linecap:round;stroke-linejoin:round;}
	.st43{fill:#F9685D;}
	.st44{fill:#11ACCD;stroke:#000000;stroke-linecap:round;stroke-miterlimit:10;}
	.st45{stroke:#000000;stroke-linecap:round;stroke-miterlimit:10;}
	.st46{fill:#FFFF00;stroke:#000000;stroke-linecap:round;stroke-miterlimit:10;}
	.st47{fill:#F9685D;stroke:#000000;stroke-linecap:round;stroke-miterlimit:10;}
	.st48{fill:#D6D8DA;stroke:#000000;stroke-linecap:round;stroke-miterlimit:10;}
	.st49{fill:none;stroke:#FF9C39;stroke-width:5;stroke-linecap:round;stroke-linejoin:round;stroke-miterlimit:10;}
	.st50{fill:#FF9C39;}
	.st51{fill:#AA87FF;}
	.st52{fill:#ED5FA6;}
	.st53{fill:#1FAB54;}
	.st54{fill:none;stroke:#000000;stroke-width:4;stroke-linecap:round;stroke-linejoin:round;stroke-miterlimit:10;}
	.st55{font-family:'KaTeX_Main-Regular';}
	.st56{font-size:14px;}
	.st57{stroke:#000000;stroke-miterlimit:10;}
	.st58{stroke:#000000;stroke-width:2;stroke-linecap:round;stroke-linejoin:round;stroke-miterlimit:10;}
	.st59{fill:none;stroke:#000000;stroke-width:3;stroke-linecap:round;stroke-linejoin:round;stroke-miterlimit:10;}
	.st60{fill:none;stroke:#000000;stroke-linejoin:round;}
	.st61{fill:none;stroke:#000000;stroke-width:7;stroke-linecap:round;stroke-linejoin:round;stroke-miterlimit:10;}
	.st62{fill:none;stroke:#11ACCD;stroke-width:3;stroke-linecap:round;stroke-linejoin:round;}
	.st63{fill:none;stroke:#11ACCD;stroke-width:2;stroke-linecap:round;stroke-miterlimit:10;}
	.st64{fill:none;stroke:#E07D10;stroke-width:2;stroke-linecap:round;stroke-miterlimit:10;}
	.st65{fill:none;stroke:#11ACCD;stroke-width:2;stroke-miterlimit:10;}
	.st66{fill:none;stroke:#000000;stroke-width:3;stroke-linecap:square;stroke-miterlimit:10;}
	.st67{fill:#BE2612;}
	.st68{fill:none;stroke:#BE2612;stroke-width:2;stroke-linecap:round;stroke-linejoin:round;}
	.st69{fill:none;stroke:#21242C;stroke-linecap:round;stroke-linejoin:round;stroke-miterlimit:10;}
	.st70{fill:none;stroke:#11ACCD;stroke-width:3;stroke-linecap:round;stroke-miterlimit:10;}
	.st71{fill:#FFFFFF;stroke:#000000;stroke-miterlimit:10;}
</style>
<g>
	<circle class="st26" cx="323.9" cy="36" r="12"/>
	<line class="st22" x1="323.9" y1="6" x2="323.9" y2="24"/>
	<line class="st20" x1="323.9" y1="48" x2="323.9" y2="66"/>
	<line class="st26" x1="323.9" y1="27" x2="323.9" y2="33"/>
	<line class="st26" x1="320.9" y1="30" x2="326.9" y2="30"/>
	<line class="st26" x1="320.9" y1="42" x2="326.9" y2="42"/>
</g>
<polyline class="st20" points="36,66 36,54 30,51 42,45 30,39 42,33 30,27 42,21 36,18 36,6 "/>
<g>
	<line class="st20" x1="106.4" y1="66" x2="106.4" y2="39"/>
	<line class="st20" x1="118.4" y1="39" x2="94.4" y2="39"/>
	<polyline class="st20" points="94.4,33 106.4,33 118.4,33 	"/>
	<line class="st20" x1="106.4" y1="6" x2="106.4" y2="33"/>
</g>
<g>
	<path class="st22" d="M178.9,48c-3.3,0-6,2-6,4.5s2.7,4.5,6,4.5v9"/>
	<path class="st22" d="M178.9,48c3.3,0,6,0.7,6,1.5s-2.7,1.5-6,1.5"/>
	<path class="st22" d="M178.9,42c-3.3,0-6,2-6,4.5s2.7,4.5,6,4.5"/>
	<path class="st22" d="M178.9,42c3.3,0,6,0.7,6,1.5s-2.7,1.5-6,1.5"/>
	<path class="st22" d="M178.9,36c-3.3,0-6,2-6,4.5s2.7,4.5,6,4.5"/>
	<path class="st22" d="M178.9,36c3.3,0,6,0.7,6,1.5s-2.7,1.5-6,1.5"/>
	<path class="st22" d="M178.9,30c-3.3,0-6,2-6,4.5s2.7,4.5,6,4.5"/>
	<path class="st22" d="M178.9,30c3.3,0,6,0.7,6,1.5s-2.7,1.5-6,1.5"/>
	<path class="st22" d="M178.9,24c3.3,0,6,0.7,6,1.5s-2.7,1.5-6,1.5"/>
	<path class="st22" d="M178.9,24c-3.3,0-6,2-6,4.5s2.7,4.5,6,4.5"/>
	<path class="st22" d="M178.9,18c-3.3,0-6,2-6,4.5s2.7,4.5,6,4.5"/>
	<line class="st22" x1="178.9" y1="6" x2="178.9" y2="18"/>
</g>
<g>
	<circle class="st26" cx="394.3" cy="36" r="12"/>
	<line class="st22" x1="394.3" y1="6" x2="394.3" y2="24"/>
	<line class="st20" x1="394.3" y1="48" x2="394.3" y2="66"/>
	<g>
		<g>
			<line class="st22" x1="394.3" y1="45" x2="394.3" y2="31.3"/>
			<g>
				<polygon points="397.3,32.2 394.3,27 391.3,32.2 				"/>
			</g>
		</g>
	</g>
</g>
<g>
	<line class="st22" x1="252.1" y1="6" x2="252.1" y2="33"/>
	<line class="st22" x1="252.1" y1="42" x2="252.1" y2="66"/>
	<line class="st22" x1="240.1" y1="33" x2="264.1" y2="33"/>
	<line class="st22" x1="249.1" y1="36" x2="255.1" y2="36"/>
	<line class="st22" x1="240.1" y1="39" x2="264.1" y2="39"/>
	<line class="st22" x1="249.1" y1="42" x2="255.1" y2="42"/>
</g>
<path d="M54.2,84h1.2v-3.6c0-0.2,0-0.4,0.1-0.6c0.2-0.9,0.8-1.6,1.7-1.6c0.2,0,0.3,0,0.4,0v-1.2c-0.1,0-0.2,0-0.4,0
	c-0.8,0-1.6,0.6-1.9,1.5h-0.1l0-1.3h-1.1c0,0.6,0.1,1.3,0.1,2.1V84z M49.4,78c1.5,0,2,1.5,2,2.6c0,1.5-0.9,2.6-2.1,2.6
	c-1.2,0-2.1-1.1-2.1-2.6C47.3,79.3,47.9,78,49.4,78z M49.4,77.1c-1.9,0-3.4,1.3-3.4,3.6c0,2.1,1.4,3.5,3.2,3.5
	c1.6,0,3.4-1.1,3.4-3.6C52.7,78.5,51.4,77.1,49.4,77.1z M42.3,75.6v1.6h-1.1v0.9h1.1v3.7c0,0.8,0.1,1.4,0.5,1.8
	c0.3,0.3,0.8,0.5,1.3,0.5c0.5,0,0.9-0.1,1.1-0.2L45.1,83c-0.2,0-0.4,0.1-0.7,0.1c-0.7,0-0.9-0.5-0.9-1.3v-3.7h1.8v-0.9h-1.8v-1.9
	L42.3,75.6z M36,83.7c0.5,0.3,1.2,0.5,1.9,0.5c1.6,0,2.5-0.8,2.5-2c0-1-0.6-1.6-1.8-2c-0.9-0.3-1.3-0.6-1.3-1.1
	c0-0.5,0.4-0.9,1.1-0.9c0.6,0,1.1,0.2,1.4,0.4l0.3-0.9c-0.4-0.2-1-0.4-1.7-0.4c-1.5,0-2.3,0.9-2.3,2c0,0.8,0.6,1.5,1.8,1.9
	c0.9,0.3,1.3,0.7,1.3,1.2c0,0.6-0.4,1-1.3,1c-0.6,0-1.3-0.3-1.6-0.5L36,83.7z M33.8,74.5c-0.4,0-0.8,0.3-0.8,0.8
	c0,0.4,0.3,0.8,0.7,0.8c0.5,0,0.8-0.3,0.8-0.8C34.5,74.9,34.2,74.5,33.8,74.5z M34.4,84v-6.8h-1.2V84H34.4z M27.1,83.7
	c0.5,0.3,1.2,0.5,1.9,0.5c1.6,0,2.5-0.8,2.5-2c0-1-0.6-1.6-1.8-2c-0.9-0.3-1.3-0.6-1.3-1.1c0-0.5,0.4-0.9,1.1-0.9
	c0.6,0,1.1,0.2,1.4,0.4l0.3-0.9c-0.4-0.2-1-0.4-1.7-0.4c-1.5,0-2.3,0.9-2.3,2c0,0.8,0.6,1.5,1.8,1.9c0.9,0.3,1.3,0.7,1.3,1.2
	c0,0.6-0.4,1-1.3,1c-0.6,0-1.3-0.3-1.6-0.5L27.1,83.7z M21.3,80c0.1-0.9,0.6-2,1.9-2c1.4,0,1.7,1.2,1.7,2H21.3z M26.1,80.8
	c0-0.1,0-0.3,0-0.6c0-1.2-0.6-3.2-2.8-3.2c-2,0-3.2,1.6-3.2,3.7c0,2,1.2,3.4,3.3,3.4c1.1,0,1.8-0.2,2.3-0.4l-0.2-0.9
	c-0.5,0.2-1,0.4-1.9,0.4c-1.2,0-2.3-0.7-2.3-2.4H26.1z M14.3,75.5c0.2-0.1,0.6-0.1,1.2-0.1c1.3,0,2.2,0.5,2.2,1.8
	c0,1.1-0.8,1.8-2.1,1.8h-1.2V75.5z M13.1,84h1.2v-4.1h1.1c1.1,0,1.6,0.5,1.9,1.8c0.3,1.2,0.5,2,0.6,2.3h1.3
	c-0.2-0.4-0.4-1.3-0.7-2.6c-0.2-1-0.7-1.7-1.4-1.9v0c1-0.3,1.8-1.2,1.8-2.4c0-0.7-0.3-1.4-0.7-1.8c-0.6-0.5-1.4-0.8-2.7-0.8
	c-0.8,0-1.7,0.1-2.3,0.2V84z"/>
<path d="M201.5,84h1.2v-3.6c0-0.2,0-0.4,0.1-0.6c0.2-0.9,0.8-1.6,1.7-1.6c0.2,0,0.3,0,0.4,0v-1.2c-0.1,0-0.2,0-0.4,0
	c-0.8,0-1.6,0.6-1.9,1.5h-0.1l0-1.3h-1.1c0,0.6,0.1,1.3,0.1,2.1V84z M196.7,78c1.5,0,2,1.5,2,2.6c0,1.5-0.9,2.6-2.1,2.6
	c-1.2,0-2.1-1.1-2.1-2.6C194.6,79.3,195.2,78,196.7,78z M196.7,77.1c-1.9,0-3.4,1.3-3.4,3.6c0,2.1,1.4,3.5,3.2,3.5
	c1.6,0,3.4-1.1,3.4-3.6C200,78.5,198.6,77.1,196.7,77.1z M189.6,75.6v1.6h-1.1v0.9h1.1v3.7c0,0.8,0.1,1.4,0.5,1.8
	c0.3,0.3,0.8,0.5,1.3,0.5c0.5,0,0.9-0.1,1.1-0.2l-0.1-0.9c-0.2,0-0.4,0.1-0.7,0.1c-0.7,0-0.9-0.5-0.9-1.3v-3.7h1.8v-0.9h-1.8v-1.9
	L189.6,75.6z M187.4,82.8c-0.4,0.2-0.8,0.3-1.5,0.3c-1.3,0-2.4-1-2.4-2.5c0-1.4,0.8-2.6,2.4-2.6c0.7,0,1.1,0.2,1.4,0.3l0.3-1
	c-0.3-0.2-1-0.4-1.7-0.4c-2.2,0-3.6,1.5-3.6,3.6c0,2.1,1.3,3.5,3.4,3.5c0.9,0,1.6-0.2,1.9-0.4L187.4,82.8z M180.8,77.2h-1.2v4.2
	c0,0.2,0,0.4-0.1,0.6c-0.2,0.5-0.8,1.1-1.6,1.1c-1.1,0-1.5-0.9-1.5-2.2v-3.8h-1.2v4c0,2.4,1.3,3,2.3,3c1.2,0,1.9-0.7,2.2-1.3h0
	l0.1,1.1h1.1c0-0.5-0.1-1.1-0.1-1.8V77.2z M171.8,81.2c0,0.2,0,0.4-0.1,0.5c-0.2,0.9-1,1.5-1.8,1.5c-1.3,0-2-1.1-2-2.5
	c0-1.5,0.8-2.6,2-2.6c0.9,0,1.6,0.6,1.8,1.4c0,0.2,0.1,0.4,0.1,0.5V81.2z M171.8,74.1v4h0c-0.3-0.5-1-1-2-1c-1.7,0-3.1,1.4-3,3.6
	c0,2.1,1.3,3.4,2.9,3.4c1.1,0,1.9-0.6,2.3-1.3h0L172,84h1.1c0-0.5-0.1-1.1-0.1-1.8v-8.2H171.8z M159.4,84h1.2v-4.1
	c0-0.2,0-0.4,0.1-0.6c0.2-0.7,0.8-1.3,1.7-1.3c1.2,0,1.6,0.9,1.6,2V84h1.2v-4c0-2.3-1.5-2.9-2.4-2.9c-1.1,0-1.9,0.6-2.2,1.3h0
	l-0.1-1.1h-1.1c0,0.6,0.1,1.1,0.1,1.8V84z M156,74.6V84h1.2v-9.4H156z"/>
<path d="M134.7,84h1.2v-3.6c0-0.2,0-0.4,0.1-0.6c0.2-0.9,0.8-1.6,1.7-1.6c0.2,0,0.3,0,0.4,0v-1.2c-0.1,0-0.2,0-0.4,0
	c-0.8,0-1.6,0.6-1.9,1.5h-0.1l0-1.3h-1.1c0,0.6,0.1,1.3,0.1,2.1V84z M129.8,78c1.5,0,2,1.5,2,2.6c0,1.5-0.9,2.6-2.1,2.6
	c-1.2,0-2.1-1.1-2.1-2.6C127.7,79.3,128.4,78,129.8,78z M129.8,77.1c-1.9,0-3.4,1.3-3.4,3.6c0,2.1,1.4,3.5,3.2,3.5
	c1.6,0,3.4-1.1,3.4-3.6C133.1,78.5,131.8,77.1,129.8,77.1z M122.7,75.6v1.6h-1.1v0.9h1.1v3.7c0,0.8,0.1,1.4,0.5,1.8
	c0.3,0.3,0.8,0.5,1.3,0.5c0.5,0,0.9-0.1,1.1-0.2l-0.1-0.9c-0.2,0-0.4,0.1-0.7,0.1c-0.7,0-0.9-0.5-0.9-1.3v-3.7h1.8v-0.9h-1.8v-1.9
	L122.7,75.6z M119.8,74.5c-0.4,0-0.8,0.3-0.8,0.8c0,0.4,0.3,0.8,0.7,0.8c0.5,0,0.8-0.3,0.8-0.8C120.5,74.9,120.2,74.5,119.8,74.5z
	 M120.4,84v-6.8h-1.2V84H120.4z M117.5,82.8c-0.4,0.2-0.8,0.3-1.5,0.3c-1.3,0-2.4-1-2.4-2.5c0-1.4,0.8-2.6,2.4-2.6
	c0.7,0,1.1,0.2,1.4,0.3l0.3-1c-0.3-0.2-1-0.4-1.7-0.4c-2.2,0-3.6,1.5-3.6,3.6c0,2.1,1.3,3.5,3.4,3.5c0.9,0,1.6-0.2,1.9-0.4
	L117.5,82.8z M109.7,81.7c0,0.1,0,0.3-0.1,0.4c-0.2,0.6-0.8,1.1-1.6,1.1c-0.6,0-1.2-0.4-1.2-1.2c0-1.3,1.5-1.6,2.9-1.5V81.7z
	 M111,84c-0.1-0.5-0.1-1-0.1-1.6v-2.5c0-1.4-0.5-2.8-2.6-2.8c-0.9,0-1.7,0.2-2.2,0.6l0.3,0.8c0.5-0.3,1.1-0.5,1.8-0.5
	c1.4,0,1.5,1,1.5,1.6v0.1c-2.6,0-4.1,0.9-4.1,2.5c0,1,0.7,1.9,2.1,1.9c1,0,1.7-0.5,2.1-1h0l0.1,0.9H111z M99.4,80.1
	c0-0.2,0-0.4,0.1-0.5c0.2-0.9,1-1.5,1.9-1.5c1.3,0,2,1.2,2,2.5c0,1.6-0.8,2.6-2.1,2.6c-0.9,0-1.6-0.6-1.8-1.4c0-0.2-0.1-0.3-0.1-0.5
	V80.1z M98.2,86.8h1.2v-3.7h0c0.4,0.7,1.2,1.1,2.1,1.1c1.6,0,3.1-1.2,3.1-3.6c0-2.1-1.2-3.4-2.9-3.4c-1.1,0-1.9,0.5-2.4,1.3h0
	l-0.1-1.2h-1.1c0,0.6,0.1,1.3,0.1,2.2V86.8z M95,81.7c0,0.1,0,0.3-0.1,0.4c-0.2,0.6-0.8,1.1-1.6,1.1c-0.6,0-1.2-0.4-1.2-1.2
	c0-1.3,1.5-1.6,2.9-1.5V81.7z M96.3,84c-0.1-0.5-0.1-1-0.1-1.6v-2.5c0-1.4-0.5-2.8-2.6-2.8c-0.9,0-1.7,0.2-2.2,0.6l0.3,0.8
	c0.5-0.3,1.1-0.5,1.8-0.5c1.4,0,1.5,1,1.5,1.6v0.1c-2.6,0-4.1,0.9-4.1,2.5c0,1,0.7,1.9,2.1,1.9c1,0,1.7-0.5,2.1-1h0l0.1,0.9H96.3z
	 M89.8,82.7c-0.5,0.2-1.2,0.4-2,0.4c-2.3,0-3.6-1.5-3.6-3.8c0-2.5,1.5-3.9,3.7-3.9c0.8,0,1.4,0.2,1.9,0.4l0.3-1
	c-0.3-0.2-1.1-0.4-2.2-0.4c-2.9,0-4.9,2-4.9,5c0,3.1,2,4.8,4.7,4.8c1.1,0,2-0.2,2.5-0.4L89.8,82.7z"/>
<path d="M269.6,77.2l2.5,6.2c0.1,0.2,0.1,0.3,0.1,0.3c0,0.1,0,0.2-0.1,0.3c-0.3,0.6-0.7,1.1-1,1.4c-0.4,0.3-0.8,0.5-1.1,0.6l0.3,1
	c0.3-0.1,0.9-0.3,1.5-0.8c0.8-0.7,1.4-1.9,2.3-4.2l1.8-4.8h-1.3l-1.3,4c-0.2,0.5-0.3,1-0.4,1.4h0c-0.1-0.4-0.3-0.9-0.4-1.4l-1.5-4
	H269.6z M265.6,84h1.2v-3.6c0-0.2,0-0.4,0.1-0.6c0.2-0.9,0.8-1.6,1.7-1.6c0.2,0,0.3,0,0.4,0v-1.2c-0.1,0-0.2,0-0.4,0
	c-0.8,0-1.6,0.6-1.9,1.5h-0.1l0-1.3h-1.1c0,0.6,0.1,1.3,0.1,2.1V84z M259.3,80c0.1-0.9,0.6-2,1.9-2c1.4,0,1.7,1.2,1.7,2H259.3z
	 M264,80.8c0-0.1,0-0.3,0-0.6c0-1.2-0.6-3.2-2.8-3.2c-2,0-3.2,1.6-3.2,3.7c0,2,1.2,3.4,3.3,3.4c1.1,0,1.8-0.2,2.3-0.4l-0.2-0.9
	c-0.5,0.2-1,0.4-1.9,0.4c-1.2,0-2.3-0.7-2.3-2.4H264z M254.3,75.6v1.6h-1.1v0.9h1.1v3.7c0,0.8,0.1,1.4,0.5,1.8
	c0.3,0.3,0.8,0.5,1.3,0.5c0.5,0,0.9-0.1,1.1-0.2l-0.1-0.9c-0.2,0-0.4,0.1-0.7,0.1c-0.7,0-0.9-0.5-0.9-1.3v-3.7h1.8v-0.9h-1.8v-1.9
	L254.3,75.6z M249.7,75.6v1.6h-1.1v0.9h1.1v3.7c0,0.8,0.1,1.4,0.5,1.8c0.3,0.3,0.8,0.5,1.3,0.5c0.5,0,0.9-0.1,1.1-0.2l-0.1-0.9
	c-0.2,0-0.4,0.1-0.7,0.1c-0.7,0-0.9-0.5-0.9-1.3v-3.7h1.8v-0.9h-1.8v-1.9L249.7,75.6z M246.3,81.7c0,0.1,0,0.3-0.1,0.4
	c-0.2,0.6-0.8,1.1-1.6,1.1c-0.6,0-1.2-0.4-1.2-1.2c0-1.3,1.5-1.6,2.9-1.5V81.7z M247.6,84c-0.1-0.5-0.1-1-0.1-1.6v-2.5
	c0-1.4-0.5-2.8-2.6-2.8c-0.9,0-1.7,0.2-2.2,0.6l0.3,0.8c0.5-0.3,1.1-0.5,1.8-0.5c1.4,0,1.5,1,1.5,1.6v0.1c-2.6,0-4.1,0.9-4.1,2.5
	c0,1,0.7,1.9,2.1,1.9c1,0,1.7-0.5,2.1-1h0l0.1,0.9H247.6z M236.4,79.5h1c1.3,0,2.4,0.5,2.4,1.8c0,1.4-1.2,1.8-2.4,1.8
	c-0.4,0-0.8,0-1-0.1V79.5z M236.4,75.5c0.2,0,0.5-0.1,1.1-0.1c1.2,0,2.1,0.4,2.1,1.5c0,0.9-0.8,1.6-2,1.6h-1.1V75.5z M235.2,84
	c0.4,0.1,1.1,0.1,1.9,0.1c1.5,0,2.6-0.3,3.3-0.9c0.5-0.5,0.8-1.1,0.8-1.9c0-1.4-1.1-2.1-1.9-2.4v0c1-0.4,1.6-1.2,1.6-2.1
	c0-0.7-0.3-1.3-0.8-1.7c-0.6-0.5-1.4-0.7-2.6-0.7c-0.9,0-1.7,0.1-2.2,0.2V84z"/>
<path d="M411,75.6v1.6H410v0.9h1.1v3.7c0,0.8,0.1,1.4,0.5,1.8c0.3,0.3,0.8,0.5,1.3,0.5c0.5,0,0.9-0.1,1.1-0.2l-0.1-0.9
	c-0.2,0-0.4,0.1-0.7,0.1c-0.7,0-0.9-0.5-0.9-1.3v-3.7h1.8v-0.9h-1.8v-1.9L411,75.6z M403,84h1.2v-4.1c0-0.2,0-0.4,0.1-0.6
	c0.2-0.7,0.8-1.3,1.7-1.3c1.2,0,1.6,0.9,1.6,2V84h1.2v-4c0-2.3-1.5-2.9-2.4-2.9c-1.1,0-1.9,0.6-2.2,1.3h0l-0.1-1.1H403
	c0,0.6,0.1,1.1,0.1,1.8V84z M396.7,80c0.1-0.9,0.6-2,1.9-2c1.4,0,1.7,1.2,1.7,2H396.7z M401.5,80.8c0-0.1,0-0.3,0-0.6
	c0-1.2-0.6-3.2-2.8-3.2c-2,0-3.2,1.6-3.2,3.7c0,2,1.2,3.4,3.3,3.4c1.1,0,1.8-0.2,2.3-0.4l-0.2-0.9c-0.5,0.2-1,0.4-1.9,0.4
	c-1.2,0-2.3-0.7-2.3-2.4H401.5z M391.6,84h1.2v-3.6c0-0.2,0-0.4,0.1-0.6c0.2-0.9,0.8-1.6,1.7-1.6c0.2,0,0.3,0,0.4,0v-1.2
	c-0.1,0-0.2,0-0.4,0c-0.8,0-1.6,0.6-1.9,1.5h-0.1l0-1.3h-1.1c0,0.6,0.1,1.3,0.1,2.1V84z M387,84h1.2v-3.6c0-0.2,0-0.4,0.1-0.6
	c0.2-0.9,0.8-1.6,1.7-1.6c0.2,0,0.3,0,0.4,0v-1.2c-0.1,0-0.2,0-0.4,0c-0.8,0-1.6,0.6-1.9,1.5H388l0-1.3h-1.1c0,0.6,0.1,1.3,0.1,2.1
	V84z M384.9,77.2h-1.2v4.2c0,0.2,0,0.4-0.1,0.6c-0.2,0.5-0.8,1.1-1.6,1.1c-1.1,0-1.5-0.9-1.5-2.2v-3.8h-1.2v4c0,2.4,1.3,3,2.3,3
	c1.2,0,1.9-0.7,2.2-1.3h0l0.1,1.1h1.1c0-0.5-0.1-1.1-0.1-1.8V77.2z M377.7,82.7c-0.5,0.2-1.2,0.4-2,0.4c-2.3,0-3.6-1.5-3.6-3.8
	c0-2.5,1.5-3.9,3.7-3.9c0.8,0,1.4,0.2,1.9,0.4l0.3-1c-0.3-0.2-1.1-0.4-2.2-0.4c-2.9,0-4.9,2-4.9,5c0,3.1,2,4.8,4.7,4.8
	c1.1,0,2-0.2,2.5-0.4L377.7,82.7z"/>
<path d="M405,96.8c0.1-0.9,0.6-2,1.9-2c1.4,0,1.7,1.2,1.7,2H405z M409.7,97.6c0-0.1,0-0.3,0-0.6c0-1.2-0.6-3.2-2.8-3.2
	c-2,0-3.2,1.6-3.2,3.7c0,2,1.2,3.4,3.3,3.4c1.1,0,1.8-0.2,2.3-0.4l-0.2-0.9c-0.5,0.2-1,0.4-1.9,0.4c-1.2,0-2.3-0.7-2.3-2.4H409.7z
	 M402.7,99.6c-0.4,0.2-0.8,0.3-1.5,0.3c-1.3,0-2.4-1-2.4-2.5c0-1.4,0.8-2.6,2.4-2.6c0.7,0,1.1,0.2,1.4,0.3l0.3-1
	c-0.3-0.2-1-0.4-1.7-0.4c-2.2,0-3.6,1.5-3.6,3.6c0,2.1,1.3,3.5,3.4,3.5c0.9,0,1.6-0.2,1.9-0.4L402.7,99.6z M393.7,100.8h1.2v-3.6
	c0-0.2,0-0.4,0.1-0.6c0.2-0.9,0.8-1.6,1.7-1.6c0.2,0,0.3,0,0.4,0v-1.2c-0.1,0-0.2,0-0.4,0c-0.8,0-1.6,0.6-1.9,1.5h-0.1l0-1.3h-1.1
	c0,0.6,0.1,1.3,0.1,2.1V100.8z M391.6,94h-1.2v4.2c0,0.2,0,0.4-0.1,0.6c-0.2,0.5-0.8,1.1-1.6,1.1c-1.1,0-1.5-0.9-1.5-2.2V94h-1.2v4
	c0,2.4,1.3,3,2.3,3c1.2,0,1.9-0.7,2.2-1.3h0l0.1,1.1h1.1c0-0.5-0.1-1.1-0.1-1.8V94z M381.1,94.8c1.5,0,2,1.5,2,2.6
	c0,1.5-0.9,2.6-2.1,2.6c-1.2,0-2.1-1.1-2.1-2.6C379,96.1,379.7,94.8,381.1,94.8z M381.1,93.9c-1.9,0-3.4,1.3-3.4,3.6
	c0,2.1,1.4,3.5,3.2,3.5c1.6,0,3.4-1.1,3.4-3.6C384.4,95.3,383.1,93.9,381.1,93.9z M370.9,100.3c0.5,0.3,1.5,0.6,2.4,0.6
	c2.2,0,3.3-1.3,3.3-2.7c0-1.4-0.8-2.2-2.4-2.8c-1.3-0.5-1.9-0.9-1.9-1.8c0-0.6,0.5-1.4,1.8-1.4c0.9,0,1.5,0.3,1.8,0.4l0.3-1
	c-0.4-0.2-1.1-0.5-2.1-0.5c-1.8,0-3.1,1.1-3.1,2.6c0,1.3,1,2.1,2.5,2.7c1.3,0.5,1.8,1,1.8,1.9c0,1-0.7,1.6-2,1.6
	c-0.8,0-1.6-0.3-2.2-0.6L370.9,100.3z"/>
<path d="M339.2,80c0.1-0.9,0.6-2,1.9-2c1.4,0,1.7,1.2,1.7,2H339.2z M344,80.8c0-0.1,0-0.3,0-0.6c0-1.2-0.6-3.2-2.8-3.2
	c-2,0-3.2,1.6-3.2,3.7c0,2,1.2,3.4,3.3,3.4c1.1,0,1.8-0.2,2.3-0.4l-0.2-0.9c-0.5,0.2-1,0.4-1.9,0.4c-1.2,0-2.3-0.7-2.3-2.4H344z
	 M335.3,81.1c0,0.2,0,0.4-0.1,0.7c-0.3,0.8-1,1.3-1.7,1.3c-1.3,0-2-1.1-2-2.4c0-1.6,0.8-2.6,2-2.6c0.9,0,1.5,0.6,1.7,1.3
	c0.1,0.2,0.1,0.4,0.1,0.6V81.1z M335.5,77.2l-0.1,1h0c-0.3-0.6-0.9-1.2-2.1-1.2c-1.6,0-3.1,1.3-3.1,3.6c0,1.9,1.2,3.3,2.9,3.3
	c1.1,0,1.8-0.5,2.2-1.1h0v0.8c0,1.7-0.9,2.4-2.2,2.4c-0.8,0-1.5-0.3-2-0.5l-0.3,0.9c0.5,0.4,1.4,0.6,2.3,0.6c0.9,0,1.8-0.2,2.5-0.8
	c0.7-0.6,1-1.5,1-3.1v-3.9c0-0.8,0-1.4,0.1-1.9H335.5z M327.5,81.7c0,0.1,0,0.3-0.1,0.4c-0.2,0.6-0.8,1.1-1.6,1.1
	c-0.6,0-1.2-0.4-1.2-1.2c0-1.3,1.5-1.6,2.9-1.5V81.7z M328.8,84c-0.1-0.5-0.1-1-0.1-1.6v-2.5c0-1.4-0.5-2.8-2.6-2.8
	c-0.9,0-1.7,0.2-2.2,0.6l0.3,0.8c0.5-0.3,1.1-0.5,1.8-0.5c1.4,0,1.5,1,1.5,1.6v0.1c-2.6,0-4.1,0.9-4.1,2.5c0,1,0.7,1.9,2.1,1.9
	c1,0,1.7-0.5,2.1-1h0l0.1,0.9H328.8z M319.6,75.6v1.6h-1.1v0.9h1.1v3.7c0,0.8,0.1,1.4,0.5,1.8c0.3,0.3,0.8,0.5,1.3,0.5
	c0.5,0,0.9-0.1,1.1-0.2l-0.1-0.9c-0.2,0-0.4,0.1-0.7,0.1c-0.7,0-0.9-0.5-0.9-1.3v-3.7h1.8v-0.9h-1.8v-1.9L319.6,75.6z M316,84h1.2
	v-9.9H316V84z M311.2,78c1.5,0,2,1.5,2,2.6c0,1.5-0.9,2.6-2.1,2.6c-1.2,0-2.1-1.1-2.1-2.6C309.1,79.3,309.7,78,311.2,78z
	 M311.2,77.1c-1.9,0-3.4,1.3-3.4,3.6c0,2.1,1.4,3.5,3.2,3.5c1.6,0,3.4-1.1,3.4-3.6C314.5,78.5,313.1,77.1,311.2,77.1z M304.4,84
	l3.4-9.4h-1.3l-1.6,4.7c-0.4,1.2-0.8,2.4-1.1,3.5h0c-0.3-1.1-0.6-2.3-1-3.5l-1.5-4.7H300l3.1,9.4H304.4z"/>
<path d="M334.7,96.8c0.1-0.9,0.6-2,1.9-2c1.4,0,1.7,1.2,1.7,2H334.7z M339.4,97.6c0-0.1,0-0.3,0-0.6c0-1.2-0.6-3.2-2.8-3.2
	c-2,0-3.2,1.6-3.2,3.7c0,2,1.2,3.4,3.3,3.4c1.1,0,1.8-0.2,2.3-0.4l-0.2-0.9c-0.5,0.2-1,0.4-1.9,0.4c-1.2,0-2.3-0.7-2.3-2.4H339.4z
	 M332.4,99.6c-0.4,0.2-0.8,0.3-1.5,0.3c-1.3,0-2.4-1-2.4-2.5c0-1.4,0.8-2.6,2.4-2.6c0.7,0,1.1,0.2,1.4,0.3l0.3-1
	c-0.3-0.2-1-0.4-1.7-0.4c-2.2,0-3.6,1.5-3.6,3.6c0,2.1,1.3,3.5,3.4,3.5c0.9,0,1.6-0.2,1.9-0.4L332.4,99.6z M323.4,100.8h1.2v-3.6
	c0-0.2,0-0.4,0.1-0.6c0.2-0.9,0.8-1.6,1.7-1.6c0.2,0,0.3,0,0.4,0v-1.2c-0.1,0-0.2,0-0.4,0c-0.8,0-1.6,0.6-1.9,1.5h-0.1l0-1.3h-1.1
	c0,0.6,0.1,1.3,0.1,2.1V100.8z M321.3,94h-1.2v4.2c0,0.2,0,0.4-0.1,0.6c-0.2,0.5-0.8,1.1-1.6,1.1c-1.1,0-1.5-0.9-1.5-2.2V94h-1.2v4
	c0,2.4,1.3,3,2.3,3c1.2,0,1.9-0.7,2.2-1.3h0l0.1,1.1h1.1c0-0.5-0.1-1.1-0.1-1.8V94z M310.8,94.8c1.5,0,2,1.5,2,2.6
	c0,1.5-0.9,2.6-2.1,2.6c-1.2,0-2.1-1.1-2.1-2.6C308.7,96.1,309.3,94.8,310.8,94.8z M310.8,93.9c-1.9,0-3.4,1.3-3.4,3.6
	c0,2.1,1.4,3.5,3.2,3.5c1.6,0,3.4-1.1,3.4-3.6C314.1,95.3,312.8,93.9,310.8,93.9z M300.5,100.3c0.5,0.3,1.5,0.6,2.4,0.6
	c2.2,0,3.3-1.3,3.3-2.7c0-1.4-0.8-2.2-2.4-2.8c-1.3-0.5-1.9-0.9-1.9-1.8c0-0.6,0.5-1.4,1.8-1.4c0.9,0,1.5,0.3,1.8,0.4l0.3-1
	c-0.4-0.2-1.1-0.5-2.1-0.5c-1.8,0-3.1,1.1-3.1,2.6c0,1.3,1,2.1,2.5,2.7c1.3,0.5,1.8,1,1.8,1.9c0,1-0.7,1.6-2,1.6
	c-0.8,0-1.6-0.3-2.2-0.6L300.5,100.3z"/>
<text transform="matrix(1 0 0 1 12 42)" class="st55 st56">R</text>
<text transform="matrix(1 0 0 1 78 42)" class="st55 st56">C</text>
<text transform="matrix(1 0 0 1 156 42)" class="st55 st56">L</text>
<text transform="matrix(1 0 0 1 294 42)" class="st55 st56">V</text>
<text transform="matrix(1 0 0 1 222 42)" class="st55 st56">V</text>
<text transform="matrix(1 0 0 1 372 42)" class="st55 st56">I</text>
</svg>
