<?xml version="1.0" encoding="utf-8"?>
<!-- Generator: Adobe Illustrator 19.1.0, SVG Export Plug-In . SVG Version: 6.00 Build 0)  -->
<svg version="1.1" id="Layer_1" xmlns="http://www.w3.org/2000/svg" xmlns:xlink="http://www.w3.org/1999/xlink" x="0px" y="0px"
	 width="366px" height="144px" viewBox="0 0 366 144" style="enable-background:new 0 0 366 144;" xml:space="preserve">
<style type="text/css">
	.st0{fill:none;stroke:#1FAB54;stroke-width:6;stroke-miterlimit:10;}
	.st1{fill:none;}
	.st2{fill:#E07D10;}
	.st3{fill:none;stroke:#ED5FA6;stroke-width:7;stroke-linecap:round;stroke-linejoin:round;stroke-miterlimit:10;}
	.st4{fill:none;stroke:#AA87FF;stroke-width:7;stroke-linecap:round;stroke-linejoin:round;stroke-miterlimit:10;}
	.st5{fill:none;stroke:#FF9C39;stroke-width:7;stroke-linecap:round;stroke-linejoin:round;stroke-miterlimit:10;}
	.st6{fill:#8AF281;stroke:#8AF281;stroke-linecap:round;stroke-linejoin:round;stroke-miterlimit:10;}
	.st7{fill:#FF9C39;stroke:#E07D10;stroke-linecap:round;stroke-linejoin:round;stroke-miterlimit:10;}
	.st8{fill:none;stroke:#8AF281;stroke-width:7;stroke-linecap:round;stroke-linejoin:round;stroke-miterlimit:10;}
	.st9{fill:#ED5FA6;stroke:#ED5FA6;stroke-width:7;stroke-linecap:round;stroke-linejoin:round;stroke-miterlimit:10;}
	.st10{fill:none;stroke:#1FAB54;stroke-width:7;stroke-linecap:round;stroke-linejoin:round;stroke-miterlimit:10;}
	.st11{fill:none;stroke:#1FAB54;stroke-width:6;stroke-linecap:round;stroke-linejoin:round;stroke-miterlimit:10;}
	.st12{fill:#FF9C39;stroke:#FF9C39;stroke-width:5;stroke-linecap:round;stroke-miterlimit:10;}
	.st13{fill:none;stroke:#1FAB54;stroke-width:4;stroke-miterlimit:10;}
	.st14{fill:none;stroke:#3C91E5;stroke-width:4;stroke-miterlimit:10;}
	.st15{fill:#FFFFFF;}
	.st16{fill:none;stroke:#11ACCD;stroke-width:5;stroke-linecap:round;stroke-miterlimit:10;}
	.st17{fill:#11ACCD;}
	.st18{fill:none;stroke:#FF9C39;stroke-width:4;stroke-miterlimit:10;}
	.st19{fill:none;stroke:#63D9EA;stroke-width:7;stroke-linecap:round;stroke-miterlimit:10;}
	.st20{fill:none;stroke:#63D9EA;stroke-width:8;stroke-linecap:round;stroke-miterlimit:10;}
	.st21{fill:none;stroke:#000000;stroke-linecap:round;stroke-linejoin:round;stroke-miterlimit:10;}
	.st22{fill:none;stroke:#000000;stroke-width:1.5;stroke-linecap:round;stroke-linejoin:round;stroke-miterlimit:10;}
	.st23{fill:none;stroke:#000000;stroke-linecap:round;stroke-miterlimit:10;}
	.st24{fill:none;stroke:#000000;stroke-width:1.5;stroke-linecap:round;stroke-miterlimit:10;}
	.st25{fill:none;stroke:#000000;stroke-width:2;stroke-linecap:round;stroke-linejoin:round;stroke-miterlimit:10;}
	.st26{fill:none;stroke:#000000;stroke-width:1.5;stroke-miterlimit:10;}
	.st27{fill:none;stroke:#000000;stroke-miterlimit:10;}
	.st28{fill:none;stroke:#000000;stroke-width:2;stroke-miterlimit:10;}
	.st29{fill:none;stroke:#000000;stroke-width:2;stroke-linecap:round;stroke-miterlimit:10;}
	.st30{fill:none;stroke:#FF9C39;stroke-width:6;stroke-miterlimit:10;}
	.st31{fill:none;stroke:#000000;stroke-linecap:round;stroke-linejoin:round;}
	.st32{stroke:#000000;stroke-linecap:round;stroke-linejoin:round;stroke-miterlimit:10;}
	.st33{fill:none;stroke:#000000;stroke-width:1.5;stroke-linejoin:round;stroke-miterlimit:10;}
	.st34{fill:none;stroke:#000000;stroke-linejoin:round;stroke-miterlimit:10;}
	.st35{clip-path:url(#SVGID_2_);fill:none;stroke:#000000;stroke-linejoin:round;stroke-miterlimit:10;}
	.st36{clip-path:url(#SVGID_2_);fill:none;stroke:#ADADEB;stroke-linejoin:round;stroke-miterlimit:10;}
	.st37{clip-path:url(#SVGID_2_);}
	.st38{stroke:#000000;stroke-linejoin:round;stroke-miterlimit:10;}
	.st39{stroke:#000000;stroke-width:3;stroke-linejoin:round;stroke-miterlimit:10;}
	.st40{fill:none;stroke:#000000;stroke-width:2;stroke-linejoin:round;stroke-miterlimit:10;}
	.st41{fill:#11ACCD;stroke:#000000;stroke-linecap:round;stroke-miterlimit:10;}
	.st42{stroke:#000000;stroke-linecap:round;stroke-miterlimit:10;}
	.st43{fill:#FFFF00;stroke:#000000;stroke-linecap:round;stroke-miterlimit:10;}
	.st44{fill:#F9685D;stroke:#000000;stroke-linecap:round;stroke-miterlimit:10;}
	.st45{fill:#D6D8DA;stroke:#000000;stroke-linecap:round;stroke-miterlimit:10;}
	.st46{fill:none;stroke:#FF9C39;stroke-width:5;stroke-linecap:round;stroke-linejoin:round;stroke-miterlimit:10;}
	.st47{fill:#FF9C39;}
	.st48{fill:#AA87FF;}
	.st49{fill:#ED5FA6;}
	.st50{fill:#1FAB54;}
	.st51{fill:none;stroke:#000000;stroke-width:4;stroke-linecap:round;stroke-linejoin:round;stroke-miterlimit:10;}
	.st52{stroke:#000000;stroke-miterlimit:10;}
	.st53{stroke:#000000;stroke-width:2;stroke-linecap:round;stroke-linejoin:round;stroke-miterlimit:10;}
	.st54{fill:none;stroke:#000000;stroke-width:3;stroke-linecap:round;stroke-linejoin:round;stroke-miterlimit:10;}
	.st55{fill:none;stroke:#11ACCD;stroke-width:2;stroke-linecap:round;stroke-linejoin:round;}
	.st56{fill:none;stroke:#000000;stroke-linejoin:round;}
	.st57{fill:none;stroke:#000000;stroke-width:7;stroke-linecap:round;stroke-linejoin:round;stroke-miterlimit:10;}
	.st58{fill:none;stroke:#11ACCD;stroke-width:3;stroke-linecap:round;stroke-linejoin:round;}
	.st59{fill:none;stroke:#11ACCD;stroke-width:2;stroke-linecap:round;stroke-miterlimit:10;}
	.st60{fill:none;stroke:#E07D10;stroke-width:2;stroke-linecap:round;stroke-miterlimit:10;}
	.st61{font-family:'KaTeX_Main-Italic';}
	.st62{font-size:24px;}
	.st63{font-family:'KaTeX_Main-Regular';}
	.st64{letter-spacing:1;}
	.st65{letter-spacing:1.7;}
	.st66{font-family:'Verdana';}
	.st67{fill:none;stroke:#11ACCD;stroke-width:2;stroke-miterlimit:10;}
	.st68{fill:none;stroke:#000000;stroke-width:3;stroke-linecap:square;stroke-miterlimit:10;}
	.st69{fill:#BE2612;}
	.st70{fill:none;stroke:#BE2612;stroke-width:2;stroke-linecap:round;stroke-linejoin:round;}
	.st71{fill:none;stroke:#21242C;stroke-linecap:round;stroke-linejoin:round;stroke-miterlimit:10;}
	.st72{fill:none;stroke:#11ACCD;stroke-width:3;stroke-linecap:round;stroke-miterlimit:10;}
	.st73{fill:#FFFFFF;stroke:#000000;stroke-miterlimit:10;}
	.st74{fill:none;stroke:#3C91E5;stroke-width:6;stroke-miterlimit:10;}
	.st75{fill:none;stroke:#E84D39;stroke-width:2;stroke-linecap:round;stroke-miterlimit:10;}
	.st76{fill:#E84D39;}
	.st77{fill:none;stroke:#FF9C39;stroke-width:2;stroke-linecap:round;stroke-miterlimit:10;}
	.st78{fill:#BABEC2;}
	.st79{fill:none;stroke:#BABEC2;stroke-linecap:round;stroke-linejoin:round;stroke-miterlimit:10;}
</style>
<g>
	<line class="st21" x1="168" y1="126" x2="168" y2="88.5"/>
	<line class="st25" x1="180" y1="88.5" x2="156" y2="88.5"/>
	<line class="st25" x1="186" y1="88.5" x2="150" y2="88.5"/>
	<polyline class="st25" points="150,79.5 168,79.5 186,79.5 	"/>
	<line class="st21" x1="168" y1="42" x2="168" y2="79.5"/>
</g>
<text transform="matrix(1 0 0 1 90 90)" class="st2 st61 st62">v</text>
<text transform="matrix(0.583 0 0 0.583 101.04 97.9922)" class="st2 st63 st62">R</text>
<text transform="matrix(1 0 0 1 18 24)" class="st17 st61 st62 st64">i</text>
<text transform="matrix(0.583 0 0 0.583 27.168 31.9922)" class="st17 st63 st62 st65">R</text>
<g>
	<g>
		<path class="st60" d="M80.4,54.7C82.6,62.2,84,72.6,84,84c0,15.5-2.5,29-6.2,36"/>
		<g>
			<path class="st2" d="M77.8,48c0,3.6-0.5,8.4-1.7,11.6l4.6-3.9l6.1-0.1C83.7,53.9,80.2,50.7,77.8,48z"/>
		</g>
	</g>
</g>
<text transform="matrix(1 0 0 1 210 90)" class="st2 st61 st62">v</text>
<text transform="matrix(0.583 0 0 0.583 221.04 97.9922)" class="st2 st63 st62">C</text>
<g>
	<g>
		<path class="st60" d="M200.4,54.7c2.2,7.5,3.6,17.8,3.6,29.3c0,15.5-2.5,29-6.2,36"/>
		<g>
			<path class="st2" d="M197.8,48c0,3.6-0.5,8.4-1.7,11.6l4.6-3.9l6.1-0.1C203.7,53.9,200.2,50.7,197.8,48z"/>
		</g>
	</g>
</g>
<text transform="matrix(1 0 0 1 330 90)" class="st2 st61 st62">v</text>
<text transform="matrix(0.583 0 0 0.583 341.04 97.9922)" class="st2 st63 st62">L</text>
<g>
	<g>
		<path class="st60" d="M320.4,54.7c2.2,7.5,3.6,17.8,3.6,29.3c0,15.5-2.5,29-6.2,36"/>
		<g>
			<path class="st2" d="M317.8,48c0,3.6-0.5,8.4-1.7,11.6l4.6-3.9l6.1-0.1C323.7,53.9,320.2,50.7,317.8,48z"/>
		</g>
	</g>
</g>
<g>
	<line class="st21" x1="48" y1="60.6" x2="48" y2="42"/>
	<polyline class="st25" points="48,107.4 39,103.5 57,95.7 39,87.9 57,80.1 39,72.3 57,64.5 48,60.6 	"/>
	<line class="st21" x1="48" y1="126" x2="48" y2="107.4"/>
	<rect x="36" y="42" class="st1" width="24" height="84"/>
</g>
<text transform="matrix(1 0 0 1 12 90)" class="st66 st62">R</text>
<text transform="matrix(1 0 0 1 126 90)" class="st66 st62">C</text>
<text transform="matrix(1 0 0 1 252 90)" class="st66 st62">L</text>
<g>
	<g>
		<line class="st67" x1="48" y1="6" x2="48" y2="28.8"/>
		<g>
			<path class="st17" d="M48,36c-1.3-3.4-3.4-7.6-5.7-10.3l5.7,2.1l5.7-2.1C51.4,28.4,49.3,32.6,48,36z"/>
		</g>
	</g>
</g>
<text transform="matrix(1 0 0 1 138 24)" class="st17 st61 st62 st64">i</text>
<text transform="matrix(0.583 0 0 0.583 147.168 31.9922)" class="st17 st63 st62 st65">C</text>
<g>
	<g>
		<line class="st67" x1="168" y1="6" x2="168" y2="28.8"/>
		<g>
			<path class="st17" d="M168,36c-1.3-3.4-3.4-7.6-5.7-10.3l5.7,2.1l5.7-2.1C171.4,28.4,169.3,32.6,168,36z"/>
		</g>
	</g>
</g>
<text transform="matrix(1 0 0 1 258 24)" class="st17 st61 st62 st64">i</text>
<text transform="matrix(0.583 0 0 0.583 267.168 31.9922)" class="st17 st63 st62 st65">L</text>
<g>
	<g>
		<line class="st67" x1="288" y1="6" x2="288" y2="28.8"/>
		<g>
			<path class="st17" d="M288,36c-1.3-3.4-3.4-7.6-5.7-10.3l5.7,2.1l5.7-2.1C291.4,28.4,289.3,32.6,288,36z"/>
		</g>
	</g>
</g>
<text transform="matrix(1 0 0 1 56.6641 48.0001)" class="st2 st63 st62">+</text>
<text transform="matrix(0.583 0 0 0.583 66.0001 113.5919)" class="st2 st63 st62">   </text>
<text transform="matrix(1 0 0 1 56.6641 134.4005)" class="st2 st63 st62">−</text>
<text transform="matrix(1 0 0 1 176.6641 48.0001)" class="st2 st63 st62">+</text>
<text transform="matrix(0.583 0 0 0.583 186.0001 113.5919)" class="st2 st63 st62">   </text>
<text transform="matrix(1 0 0 1 176.6641 134.4005)" class="st2 st63 st62">−</text>
<text transform="matrix(1 0 0 1 296.6641 48.0001)" class="st2 st63 st62">+</text>
<text transform="matrix(0.583 0 0 0.583 306.0001 113.5919)" class="st2 st63 st62">   </text>
<text transform="matrix(1 0 0 1 296.6641 134.4005)" class="st2 st63 st62">−</text>
<g>
	<line class="st23" x1="288" y1="114" x2="288" y2="126"/>
	<path class="st29" d="M288,100.2c-5,0-9,3.1-9,6.9s4,6.9,9,6.9"/>
	<path class="st29" d="M288,100.2c5,0,9,1,9,2.3s-4,2.3-9,2.3"/>
	<path class="st29" d="M288,90.9c-5,0-9,3.1-9,6.9c0,3.8,4,6.9,9,6.9"/>
	<path class="st29" d="M288,90.9c5,0,9,1,9,2.3c0,1.3-4,2.3-9,2.3"/>
	<path class="st29" d="M288,81.7c-5,0-9,3.1-9,6.9s4,6.9,9,6.9"/>
	<path class="st29" d="M288,81.7c5,0,9,1,9,2.3c0,1.3-4,2.3-9,2.3"/>
	<path class="st29" d="M288,72.5c-5,0-9,3.1-9,6.9s4,6.9,9,6.9"/>
	<path class="st29" d="M288,72.5c5,0,9,1,9,2.3s-4,2.3-9,2.3"/>
	<path class="st29" d="M288,63.2c5,0,9,1,9,2.3c0,1.3-4,2.3-9,2.3"/>
	<path class="st29" d="M288,63.2c-5,0-9,3.1-9,6.9s4,6.9,9,6.9"/>
	<path class="st29" d="M288,54c-5,0-9,3.1-9,6.9s4,6.9,9,6.9"/>
	<line class="st23" x1="288" y1="42" x2="288" y2="54"/>
	<rect x="276" y="42" class="st1" width="24" height="84"/>
</g>
</svg>
