<svg xmlns="http://www.w3.org/2000/svg" version="1.1" width="199.99999999999997" height="199.99999999999997" viewBox="0 0 199.99999999999997 199.99999999999997"><defs><clipPath id="clip-1"><rect x="0" y="29.999999999999993" width="170" height="170"/></clipPath></defs><path fill="none" stroke="#000000" d="M 0,200 L 0,30" style="stroke-width: 2px;opacity: 0.1" stroke-width="2" opacity="0.1"/><path fill="none" stroke="#000000" d="M 14.1667,200 L 14.1667,30" style="stroke-width: 2px;opacity: 0.1" stroke-width="2" opacity="0.1"/><path fill="none" stroke="#000000" d="M 28.3333,200 L 28.3333,30" style="stroke-width: 2px;opacity: 0.1" stroke-width="2" opacity="0.1"/><path fill="none" stroke="#000000" d="M 42.5,200 L 42.5,30" style="stroke-width: 2px;opacity: 0.1" stroke-width="2" opacity="0.1"/><path fill="none" stroke="#000000" d="M 56.6667,200 L 56.6667,30" style="stroke-width: 2px;opacity: 0.1" stroke-width="2" opacity="0.1"/><path fill="none" stroke="#000000" d="M 70.8333,200 L 70.8333,30" style="stroke-width: 2px;opacity: 0.1" stroke-width="2" opacity="0.1"/><path fill="none" stroke="#000000" d="M 85,200 L 85,30" style="stroke-width: 2px;opacity: 0.1" stroke-width="2" opacity="0.1"/><path fill="none" stroke="#000000" d="M 99.1667,200 L 99.1667,30" style="stroke-width: 2px;opacity: 0.1" stroke-width="2" opacity="0.1"/><path fill="none" stroke="#000000" d="M 113.333,200 L 113.333,30" style="stroke-width: 2px;opacity: 0.1" stroke-width="2" opacity="0.1"/><path fill="none" stroke="#000000" d="M 127.5,200 L 127.5,30" style="stroke-width: 2px;opacity: 0.1" stroke-width="2" opacity="0.1"/><path fill="none" stroke="#000000" d="M 141.667,200 L 141.667,30" style="stroke-width: 2px;opacity: 0.1" stroke-width="2" opacity="0.1"/><path fill="none" stroke="#000000" d="M 155.833,200 L 155.833,30" style="stroke-width: 2px;opacity: 0.1" stroke-width="2" opacity="0.1"/><path fill="none" stroke="#000000" d="M 170,200 L 170,30" style="stroke-width: 2px;opacity: 0.1" stroke-width="2" opacity="0.1"/><path fill="none" stroke="#000000" d="M 0,200 L 170,200" style="stroke-width: 2px;opacity: 0.1" stroke-width="2" opacity="0.1"/><path fill="none" stroke="#000000" d="M 0,185.833 L 170,185.833" style="stroke-width: 2px;opacity: 0.1" stroke-width="2" opacity="0.1"/><path fill="none" stroke="#000000" d="M 0,171.667 L 170,171.667" style="stroke-width: 2px;opacity: 0.1" stroke-width="2" opacity="0.1"/><path fill="none" stroke="#000000" d="M 0,157.5 L 170,157.5" style="stroke-width: 2px;opacity: 0.1" stroke-width="2" opacity="0.1"/><path fill="none" stroke="#000000" d="M 0,143.333 L 170,143.333" style="stroke-width: 2px;opacity: 0.1" stroke-width="2" opacity="0.1"/><path fill="none" stroke="#000000" d="M 0,129.167 L 170,129.167" style="stroke-width: 2px;opacity: 0.1" stroke-width="2" opacity="0.1"/><path fill="none" stroke="#000000" d="M 0,115 L 170,115" style="stroke-width: 2px;opacity: 0.1" stroke-width="2" opacity="0.1"/><path fill="none" stroke="#000000" d="M 0,100.833 L 170,100.833" style="stroke-width: 2px;opacity: 0.1" stroke-width="2" opacity="0.1"/><path fill="none" stroke="#000000" d="M 0,86.6667 L 170,86.6667" style="stroke-width: 2px;opacity: 0.1" stroke-width="2" opacity="0.1"/><path fill="none" stroke="#000000" d="M 0,72.5 L 170,72.5" style="stroke-width: 2px;opacity: 0.1" stroke-width="2" opacity="0.1"/><path fill="none" stroke="#000000" d="M 0,58.3333 L 170,58.3333" style="stroke-width: 2px;opacity: 0.1" stroke-width="2" opacity="0.1"/><path fill="none" stroke="#000000" d="M 0,44.1667 L 170,44.1667" style="stroke-width: 2px;opacity: 0.1" stroke-width="2" opacity="0.1"/><path fill="none" stroke="#000000" d="M 0,30 L 170,30" style="stroke-width: 2px;opacity: 0.1" stroke-width="2" opacity="0.1"/><path fill="none" stroke="#000000" d="M -3.45,120.6 C -3.1,118.5 0.75,115.35 1.8,115 C 0.75,114.65 -3.1,111.5 -3.45,109.4" transform="rotate(180 1.7999999999999972 114.99999999999999)" style="stroke-width: 2px;opacity: 1;stroke-linejoin: round;stroke-linecap: round" stroke-width="2" opacity="1" stroke-linejoin="round" stroke-linecap="round"/><path fill="none" stroke="#000000" d="M 85,115 S 85,115 1.05,115" style="stroke-width: 2px;opacity: 1" stroke-width="2" opacity="1"/><path fill="none" stroke="#000000" d="M 164.45,120.6 C 164.8,118.5 168.65,115.35 169.7,115 C 168.65,114.65 164.8,111.5 164.45,109.4" transform="" style="stroke-width: 2px;opacity: 1;stroke-linejoin: round;stroke-linecap: round" stroke-width="2" opacity="1" stroke-linejoin="round" stroke-linecap="round"/><path fill="none" stroke="#000000" d="M 85,115 S 85,115 168.95,115" style="stroke-width: 2px;opacity: 1" stroke-width="2" opacity="1"/><path fill="none" stroke="#000000" d="M 80.5,204.55 C 80.85,202.45 84.7,199.3 85.75,198.95 C 84.7,198.6 80.85,195.45 80.5,193.35" transform="rotate(90 85.75 198.95)" style="stroke-width: 2px;opacity: 1;stroke-linejoin: round;stroke-linecap: round" stroke-width="2" opacity="1" stroke-linejoin="round" stroke-linecap="round"/><path fill="none" stroke="#000000" d="M 85,115 S 85,115 85,198.95" style="stroke-width: 2px;opacity: 1" stroke-width="2" opacity="1"/><path fill="none" stroke="#000000" d="M 80.5,36.65 C 80.85,34.55 84.7,31.4 85.75,31.05 C 84.7,30.7 80.85,27.55 80.5,25.45" transform="rotate(-90 85.75 31.049999999999983)" style="stroke-width: 2px;opacity: 1;stroke-linejoin: round;stroke-linecap: round" stroke-width="2" opacity="1" stroke-linejoin="round" stroke-linecap="round"/><path fill="none" stroke="#000000" d="M 85,115 S 85,115 85,31.05" style="stroke-width: 2px;opacity: 1" stroke-width="2" opacity="1"/><path fill="none" stroke="#000000" d="M 113.333,120 L 113.333,110" style="stroke-width: 1px;opacity: 1" stroke-width="1" opacity="1"/><path fill="none" stroke="#000000" d="M 141.667,120 L 141.667,110" style="stroke-width: 1px;opacity: 1" stroke-width="1" opacity="1"/><path fill="none" stroke="#000000" d="M 56.6667,120 L 56.6667,110" style="stroke-width: 1px;opacity: 1" stroke-width="1" opacity="1"/><path fill="none" stroke="#000000" d="M 28.3333,120 L 28.3333,110" style="stroke-width: 1px;opacity: 1" stroke-width="1" opacity="1"/><path fill="none" stroke="#000000" d="M 80,86.6667 L 90,86.6667" style="stroke-width: 1px;opacity: 1" stroke-width="1" opacity="1"/><path fill="none" stroke="#000000" d="M 80,58.3333 L 90,58.3333" style="stroke-width: 1px;opacity: 1" stroke-width="1" opacity="1"/><path fill="none" stroke="#000000" d="M 80,143.333 L 90,143.333" style="stroke-width: 1px;opacity: 1" stroke-width="1" opacity="1"/><path fill="none" stroke="#000000" d="M 80,171.667 L 90,171.667" style="stroke-width: 1px;opacity: 1" stroke-width="1" opacity="1"/><path fill="none" stroke="#6495ed" d="M 0,143.333 L 28.3333,86.6667" style="stroke-width: 3px" stroke-width="3" clip-path="url(#clip-1)"/><path fill="none" stroke="#6495ed" d="M 28.3333,86.6667 L 56.6667,143.333" style="stroke-width: 3px" stroke-width="3" clip-path="url(#clip-1)"/><path fill="none" stroke="#6495ed" d="M 56.6667,143.333 L 85,86.6667" style="stroke-width: 3px" stroke-width="3" clip-path="url(#clip-1)"/><path fill="none" stroke="#6495ed" d="M 85,86.6667 L 113.333,143.333" style="stroke-width: 3px" stroke-width="3" clip-path="url(#clip-1)"/><path fill="none" stroke="#6495ed" d="M 113.333,143.333 L 141.667,86.6667" style="stroke-width: 3px" stroke-width="3" clip-path="url(#clip-1)"/><path fill="none" stroke="#6495ed" d="M 141.667,86.6667 L 170,143.333" style="stroke-width: 3px" stroke-width="3" clip-path="url(#clip-1)"/></svg>