<svg xmlns="http://www.w3.org/2000/svg" version="1.1" width="200" height="199.99999999999997" viewBox="0 0 200 199.99999999999997"><defs><clipPath id="clip-1"><rect x="0" y="29.999999999999993" width="170" height="170"/></clipPath></defs><path fill="none" stroke="#000000" d="M 0,200 L 0,30" style="stroke-width: 2px;opacity: 0.1" stroke-width="2" opacity="0.1"/><path fill="none" stroke="#000000" d="M 24.2857,200 L 24.2857,30" style="stroke-width: 2px;opacity: 0.1" stroke-width="2" opacity="0.1"/><path fill="none" stroke="#000000" d="M 48.5714,200 L 48.5714,30" style="stroke-width: 2px;opacity: 0.1" stroke-width="2" opacity="0.1"/><path fill="none" stroke="#000000" d="M 72.8571,200 L 72.8571,30" style="stroke-width: 2px;opacity: 0.1" stroke-width="2" opacity="0.1"/><path fill="none" stroke="#000000" d="M 97.1429,200 L 97.1429,30" style="stroke-width: 2px;opacity: 0.1" stroke-width="2" opacity="0.1"/><path fill="none" stroke="#000000" d="M 121.429,200 L 121.429,30" style="stroke-width: 2px;opacity: 0.1" stroke-width="2" opacity="0.1"/><path fill="none" stroke="#000000" d="M 145.714,200 L 145.714,30" style="stroke-width: 2px;opacity: 0.1" stroke-width="2" opacity="0.1"/><path fill="none" stroke="#000000" d="M 170,200 L 170,30" style="stroke-width: 2px;opacity: 0.1" stroke-width="2" opacity="0.1"/><path fill="none" stroke="#000000" d="M 0,200 L 170,200" style="stroke-width: 2px;opacity: 0.1" stroke-width="2" opacity="0.1"/><path fill="none" stroke="#000000" d="M 0,185.833 L 170,185.833" style="stroke-width: 2px;opacity: 0.1" stroke-width="2" opacity="0.1"/><path fill="none" stroke="#000000" d="M 0,171.667 L 170,171.667" style="stroke-width: 2px;opacity: 0.1" stroke-width="2" opacity="0.1"/><path fill="none" stroke="#000000" d="M 0,157.5 L 170,157.5" style="stroke-width: 2px;opacity: 0.1" stroke-width="2" opacity="0.1"/><path fill="none" stroke="#000000" d="M 0,143.333 L 170,143.333" style="stroke-width: 2px;opacity: 0.1" stroke-width="2" opacity="0.1"/><path fill="none" stroke="#000000" d="M 0,129.167 L 170,129.167" style="stroke-width: 2px;opacity: 0.1" stroke-width="2" opacity="0.1"/><path fill="none" stroke="#000000" d="M 0,115 L 170,115" style="stroke-width: 2px;opacity: 0.1" stroke-width="2" opacity="0.1"/><path fill="none" stroke="#000000" d="M 0,100.833 L 170,100.833" style="stroke-width: 2px;opacity: 0.1" stroke-width="2" opacity="0.1"/><path fill="none" stroke="#000000" d="M 0,86.6667 L 170,86.6667" style="stroke-width: 2px;opacity: 0.1" stroke-width="2" opacity="0.1"/><path fill="none" stroke="#000000" d="M 0,72.5 L 170,72.5" style="stroke-width: 2px;opacity: 0.1" stroke-width="2" opacity="0.1"/><path fill="none" stroke="#000000" d="M 0,58.3333 L 170,58.3333" style="stroke-width: 2px;opacity: 0.1" stroke-width="2" opacity="0.1"/><path fill="none" stroke="#000000" d="M 0,44.1667 L 170,44.1667" style="stroke-width: 2px;opacity: 0.1" stroke-width="2" opacity="0.1"/><path fill="none" stroke="#000000" d="M 0,30 L 170,30" style="stroke-width: 2px;opacity: 0.1" stroke-width="2" opacity="0.1"/><path fill="none" stroke="#000000" d="M -3.45,120.6 C -3.1,118.5 0.749998,115.35 1.8,115 C 0.749998,114.65 -3.1,111.5 -3.45,109.4" transform="rotate(180 1.7999983651297384 114.99999999999999)" style="stroke-width: 2px;opacity: 1;stroke-linejoin: round;stroke-linecap: round" stroke-width="2" opacity="1" stroke-linejoin="round" stroke-linecap="round"/><path fill="none" stroke="#000000" d="M 48.5714,115 S 48.5714,115 1.05,115" style="stroke-width: 2px;opacity: 1" stroke-width="2" opacity="1"/><path fill="none" stroke="#000000" d="M 164.45,120.6 C 164.8,118.5 168.65,115.35 169.7,115 C 168.65,114.65 164.8,111.5 164.45,109.4" transform="" style="stroke-width: 2px;opacity: 1;stroke-linejoin: round;stroke-linecap: round" stroke-width="2" opacity="1" stroke-linejoin="round" stroke-linecap="round"/><path fill="none" stroke="#000000" d="M 48.5714,115 S 48.5714,115 168.95,115" style="stroke-width: 2px;opacity: 1" stroke-width="2" opacity="1"/><path fill="none" stroke="#000000" d="M 44.0714,204.55 C 44.4214,202.45 48.2714,199.3 49.3214,198.95 C 48.2714,198.6 44.4214,195.45 44.0714,193.35" transform="rotate(90 49.32142857142857 198.95)" style="stroke-width: 2px;opacity: 1;stroke-linejoin: round;stroke-linecap: round" stroke-width="2" opacity="1" stroke-linejoin="round" stroke-linecap="round"/><path fill="none" stroke="#000000" d="M 48.5714,115 S 48.5714,115 48.5714,198.95" style="stroke-width: 2px;opacity: 1" stroke-width="2" opacity="1"/><path fill="none" stroke="#000000" d="M 44.0714,36.65 C 44.4214,34.55 48.2714,31.4 49.3214,31.05 C 48.2714,30.7 44.4214,27.55 44.0714,25.45" transform="rotate(-90 49.32142857142857 31.049999999999983)" style="stroke-width: 2px;opacity: 1;stroke-linejoin: round;stroke-linecap: round" stroke-width="2" opacity="1" stroke-linejoin="round" stroke-linecap="round"/><path fill="none" stroke="#000000" d="M 48.5714,115 S 48.5714,115 48.5714,31.05" style="stroke-width: 2px;opacity: 1" stroke-width="2" opacity="1"/><path fill="none" stroke="#000000" d="M 97.1429,120 L 97.1429,110" style="stroke-width: 1px;opacity: 1" stroke-width="1" opacity="1"/><path fill="none" stroke="#000000" d="M 145.714,120 L 145.714,110" style="stroke-width: 1px;opacity: 1" stroke-width="1" opacity="1"/><path fill="none" stroke="#000000" d="M 43.5714,86.6667 L 53.5714,86.6667" style="stroke-width: 1px;opacity: 1" stroke-width="1" opacity="1"/><path fill="none" stroke="#000000" d="M 43.5714,58.3333 L 53.5714,58.3333" style="stroke-width: 1px;opacity: 1" stroke-width="1" opacity="1"/><path fill="none" stroke="#000000" d="M 43.5714,143.333 L 53.5714,143.333" style="stroke-width: 1px;opacity: 1" stroke-width="1" opacity="1"/><path fill="none" stroke="#000000" d="M 43.5714,171.667 L 53.5714,171.667" style="stroke-width: 1px;opacity: 1" stroke-width="1" opacity="1"/><path fill="none" stroke="#6495ed" d="M 0,115 L 0.5,115.916 L 1,116.831 L 1.5,117.745 L 2,118.655 L 2.5,119.562 L 3,120.463 L 3.5,121.359 L 4,122.249 L 4.5,123.131 L 5,124.004 L 5.5,124.868 L 6,125.722 L 6.5,126.564 L 7,127.394 L 7.5,128.212 L 8,129.015 L 8.5,129.804 L 9,130.578 L 9.5,131.335 L 10,132.075 L 10.5,132.797 L 11,133.5 L 11.5,134.185 L 12,134.849 L 12.5,135.492 L 13,136.114 L 13.5,136.714 L 14,137.291 L 14.5,137.845 L 15,138.375 L 15.5,138.88 L 16,139.361 L 16.5,139.816 L 17,140.245 L 17.5,140.648 L 18,141.024 L 18.5,141.372 L 19,141.694 L 19.5,141.987 L 20,142.252 L 20.5,142.488 L 21,142.696 L 21.5,142.875 L 22,143.024 L 22.5,143.145 L 23,143.235 L 23.5,143.297 L 24,143.328 L 24.5,143.331 L 25,143.303 L 25.5,143.246 L 26,143.159 L 26.5,143.043 L 27,142.898 L 27.5,142.723 L 28,142.52 L 28.5,142.287 L 29,142.026 L 29.5,141.737 L 30,141.42 L 30.5,141.075 L 31,140.703 L 31.5,140.304 L 32,139.879 L 32.5,139.428 L 33,138.951 L 33.5,138.449 L 34,137.922 L 34.5,137.372 L 35,136.798 L 35.5,136.201 L 36,135.582 L 36.5,134.942 L 37,134.281 L 37.5,133.599 L 38,132.898 L 38.5,132.179 L 39,131.441 L 39.5,130.687 L 40,129.916 L 40.5,129.129 L 41,128.327 L 41.5,127.512 L 42,126.683 L 42.5,125.843 L 43,124.991 L 43.5,124.128 L 44,123.256 L 44.5,122.375 L 45,121.487 L 45.5,120.592 L 46,119.691 L 46.5,118.785 L 47,117.875 L 47.5,116.962 L 48,116.047 L 48.5,115.131 L 49,114.215 L 49.5,113.299 L 50,112.386 L 50.5,111.475 L 51,110.568 L 51.5,109.665 L 52,108.768 L 52.5,107.878 L 53,106.995 L 53.5,106.12 L 54,105.255 L 54.5,104.4 L 55,103.556 L 55.5,102.723 L 56,101.904 L 56.5,101.099 L 57,100.308 L 57.5,99.532 L 58,98.7725 L 58.5,98.03 L 59,97.3052 L 59.5,96.599 L 60,95.912 L 60.5,95.2449 L 61,94.5985 L 61.5,93.9735 L 62,93.3704 L 62.5,92.7899 L 63,92.2327 L 63.5,91.6993 L 64,91.1903 L 64.5,90.7061 L 65,90.2474 L 65.5,89.8145 L 66,89.408 L 66.5,89.0282 L 67,88.6757 L 67.5,88.3506 L 68,88.0534 L 68.5,87.7844 L 69,87.5438 L 69.5,87.332 L 70,87.1491 L 70.5,86.9953 L 71,86.8708 L 71.5,86.7758 L 72,86.7102 L 72.5,86.6742 L 73,86.6679 L 73.5,86.6912 L 74,86.744 L 74.5,86.8265 L 75,86.9384 L 75.5,87.0796 L 76,87.2501 L 76.5,87.4495 L 77,87.6778 L 77.5,87.9346 L 78,88.2198 L 78.5,88.5329 L 79,88.8738 L 79.5,89.2419 L 80,89.637 L 80.5,90.0587 L 81,90.5064 L 81.5,90.9797 L 82,91.4781 L 82.5,92.0012 L 83,92.5482 L 83.5,93.1188 L 84,93.7123 L 84.5,94.328 L 85,94.9653 L 85.5,95.6236 L 86,96.3021 L 86.5,97.0002 L 87,97.7172 L 87.5,98.4522 L 88,99.2045 L 88.5,99.9733 L 89,100.758 L 89.5,101.557 L 90,102.371 L 90.5,103.197 L 91,104.036 L 91.5,104.887 L 92,105.748 L 92.5,106.619 L 93,107.498 L 93.5,108.386 L 94,109.28 L 94.5,110.18 L 95,111.086 L 95.5,111.995 L 96,112.908 L 96.5,113.822 L 97,114.738 L 97.5,115.654 L 98,116.57 L 98.5,117.484 L 99,118.395 L 99.5,119.303 L 100,120.206 L 100.5,121.104 L 101,121.995 L 101.5,122.88 L 102,123.755 L 102.5,124.622 L 103,125.479 L 103.5,126.325 L 104,127.158 L 104.5,127.98 L 105,128.787 L 105.5,129.58 L 106,130.358 L 106.5,131.12 L 107,131.865 L 107.5,132.592 L 108,133.301 L 108.5,133.991 L 109,134.661 L 109.5,135.31 L 110,135.939 L 110.5,136.545 L 111,137.129 L 111.5,137.689 L 112,138.226 L 112.5,138.739 L 113,139.226 L 113.5,139.689 L 114,140.125 L 114.5,140.536 L 115,140.919 L 115.5,141.276 L 116,141.605 L 116.5,141.906 L 117,142.179 L 117.5,142.424 L 118,142.64 L 118.5,142.827 L 119,142.985 L 119.5,143.113 L 120,143.212 L 120.5,143.282 L 121,143.322 L 121.5,143.333 L 122,143.314 L 122.5,143.265 L 123,143.187 L 123.5,143.079 L 124,142.942 L 124.5,142.776 L 125,142.581 L 125.5,142.357 L 126,142.104 L 126.5,141.823 L 127,141.513 L 127.5,141.177 L 128,140.812 L 128.5,140.421 L 129,140.003 L 129.5,139.559 L 130,139.089 L 130.5,138.595 L 131,138.075 L 131.5,137.531 L 132,136.964 L 132.5,136.374 L 133,135.761 L 133.5,135.127 L 134,134.472 L 134.5,133.796 L 135,133.101 L 135.5,132.386 L 136,131.654 L 136.5,130.904 L 137,130.138 L 137.5,129.355 L 138,128.558 L 138.5,127.746 L 139,126.921 L 139.5,126.084 L 140,125.235 L 140.5,124.376 L 141,123.506 L 141.5,122.628 L 142,121.741 L 142.5,120.848 L 143,119.949 L 143.5,119.044 L 144,118.135 L 144.5,117.223 L 145,116.309 L 145.5,115.393 L 146,114.476 L 146.5,113.561 L 147,112.647 L 147.5,111.735 L 148,110.826 L 148.5,109.922 L 149,109.024 L 149.5,108.131 L 150,107.246 L 150.5,106.369 L 151,105.501 L 151.5,104.643 L 152,103.796 L 152.5,102.96 L 153,102.137 L 153.5,101.327 L 154,100.532 L 154.5,99.752 L 155,98.9878 L 155.5,98.2404 L 156,97.5105 L 156.5,96.7988 L 157,96.1062 L 157.5,95.4334 L 158,94.781 L 158.5,94.1498 L 159,93.5404 L 159.5,92.9534 L 160,92.3895 L 160.5,91.8492 L 161,91.3332 L 161.5,90.8419 L 162,90.3758 L 162.5,89.9355 L 163,89.5214 L 163.5,89.134 L 164,88.7736 L 164.5,88.4406 L 165,88.1354 L 165.5,87.8584 L 166,87.6096 L 166.5,87.3896 L 167,87.1984 L 167.5,87.0363 L 168,86.9034 L 168.5,86.7999 L 169,86.7259 L 169.5,86.6815" style="stroke-width: 3px" stroke-width="3" clip-path="url(#clip-1)"/></svg>